<svg width="20" height="20" viewBox="0 0 20 20" fill="none" xmlns="http://www.w3.org/2000/svg">
<path fill-rule="evenodd" clip-rule="evenodd" d="M2.09932 6.51928C1.66666 7.30973 1.66666 8.26323 1.66666 10.1702V11.4378C1.66666 14.6885 1.66666 16.3139 2.64296 17.3237C3.61928 18.3337 5.19062 18.3337 8.33332 18.3337H11.6667C14.8093 18.3337 16.3807 18.3337 17.357 17.3237C18.3333 16.3139 18.3333 14.6885 18.3333 11.4378V10.1702C18.3333 8.26323 18.3333 7.30973 17.9007 6.51928C17.468 5.72883 16.6776 5.23825 15.0967 4.25709L13.43 3.22272C11.7588 2.18557 10.9232 1.66699 9.99999 1.66699C9.07674 1.66699 8.24115 2.18557 6.57001 3.22272L4.90335 4.2571C3.32245 5.23825 2.53199 5.72883 2.09932 6.51928ZM7.87217 12.8316C7.59486 12.626 7.20343 12.6842 6.99788 12.9615C6.79234 13.2388 6.85051 13.6302 7.12781 13.8357C7.93816 14.4364 8.92916 14.792 9.99999 14.792C11.0708 14.792 12.0618 14.4364 12.8722 13.8357C13.1495 13.6302 13.2077 13.2388 13.0021 12.9615C12.7966 12.6842 12.4052 12.626 12.1278 12.8316C11.5208 13.2814 10.7882 13.542 9.99999 13.542C9.21174 13.542 8.47916 13.2814 7.87217 12.8316Z" fill="#3A3FBB"/>
</svg>
