<svg width="15" height="15" viewBox="0 0 15 15" fill="none" xmlns="http://www.w3.org/2000/svg">
<path fill-rule="evenodd" clip-rule="evenodd" d="M13.0298 1.17417C12.2976 0.441943 11.1104 0.44194 10.3781 1.17417L1.52965 10.0227C1.2679 10.2844 1.08948 10.6178 1.01689 10.9808L0.649969 12.8154C0.475039 13.69 1.24619 14.4612 2.12084 14.2863L3.95543 13.9193C4.31841 13.8468 4.65178 13.6683 4.91353 13.4066L13.762 4.55806C14.4942 3.82582 14.4942 2.63864 13.762 1.90641L13.0298 1.17417ZM11.262 2.05806C11.5061 1.81398 11.9018 1.81398 12.1459 2.05806L12.8781 2.79029C13.1222 3.03437 13.1222 3.43009 12.8781 3.67418L11.2084 5.34392L9.59231 3.7278L11.262 2.05806ZM8.70838 4.61169L2.41353 10.9066C2.32628 10.9938 2.26681 11.1049 2.24261 11.2259L1.87569 13.0605L3.71028 12.6936C3.83128 12.6694 3.9424 12.6099 4.02965 12.5227L10.3245 6.2278L8.70838 4.61169Z" fill="white"/>
</svg>
