<svg width="15" height="15" viewBox="0 0 15 15" fill="none" xmlns="http://www.w3.org/2000/svg">
<path d="M10.3243 10.313C10.4337 10.2277 10.5329 10.1285 10.7313 9.93006L13.2047 7.45669C13.2644 7.39694 13.2371 7.29394 13.1572 7.26619C12.8653 7.16494 12.4854 6.97475 12.1302 6.6195C11.7749 6.26425 11.5848 5.88444 11.4835 5.59249C11.4558 5.5126 11.3528 5.48523 11.293 5.54502L8.81964 8.01837C8.6212 8.21681 8.52201 8.316 8.4367 8.42537C8.33607 8.55444 8.24976 8.694 8.17939 8.84175C8.1197 8.96694 8.07532 9.10006 7.98664 9.36625L7.87195 9.71019L7.68964 10.2571L7.5187 10.7699C7.47507 10.9009 7.50914 11.0452 7.60676 11.1429C7.70445 11.2406 7.84882 11.2746 7.97982 11.231L8.49264 11.0601L9.03951 10.8777L9.38345 10.7631C9.64957 10.6744 9.78276 10.63 9.90795 10.5703C10.0557 10.4999 10.1953 10.4136 10.3243 10.313Z" fill="#3A3FBB"/>
<path d="M13.9793 6.68262C14.5073 6.15471 14.5073 5.29882 13.9793 4.77092C13.4514 4.24303 12.5956 4.24303 12.0676 4.77092L11.9881 4.85044C11.9114 4.92717 11.8766 5.03435 11.8958 5.14116C11.9079 5.20835 11.9302 5.30658 11.9709 5.42379C12.0522 5.65821 12.2058 5.96593 12.4951 6.25519C12.7843 6.5445 13.0921 6.69806 13.3264 6.77937C13.4437 6.82006 13.5419 6.84237 13.6091 6.85444C13.7159 6.87362 13.8231 6.83887 13.8998 6.76212L13.9793 6.68262Z" fill="#3A3FBB"/>
<path fill-rule="evenodd" clip-rule="evenodd" d="M2.60723 1.98223C1.875 2.71447 1.875 3.89298 1.875 6.25V8.75C1.875 11.107 1.875 12.2856 2.60723 13.0177C3.33947 13.75 4.51798 13.75 6.875 13.75H8.125C10.482 13.75 11.6606 13.75 12.3927 13.0177C13.1132 12.2972 13.1248 11.1448 13.125 8.86256L11.3636 10.624C11.1949 10.7927 11.0569 10.9309 10.9009 11.0526C10.7182 11.1951 10.5205 11.3172 10.3113 11.4169C10.1328 11.502 9.94744 11.5637 9.72112 11.6391L8.27631 12.1207C7.80844 12.2766 7.29262 12.1549 6.94387 11.8061C6.59519 11.4574 6.47338 10.9416 6.62938 10.4737L6.80031 9.96094L7.09725 9.07006L7.11094 9.02894C7.18631 8.80262 7.248 8.61725 7.33306 8.43869C7.43275 8.2295 7.55494 8.03181 7.6975 7.84913C7.81913 7.69313 7.95731 7.55506 8.12606 7.38644L10.6301 4.88243L11.325 4.18752L11.4045 4.10801C11.8516 3.66088 12.4377 3.43738 13.0237 3.4375C12.9292 2.79341 12.7463 2.33579 12.3927 1.98223C11.6606 1.25 10.482 1.25 8.125 1.25H6.875C4.51798 1.25 3.33947 1.25 2.60723 1.98223ZM4.53125 5.625C4.53125 5.36612 4.74112 5.15625 5 5.15625H9.0625C9.32137 5.15625 9.53125 5.36612 9.53125 5.625C9.53125 5.88388 9.32137 6.09375 9.0625 6.09375H5C4.74112 6.09375 4.53125 5.88388 4.53125 5.625ZM4.53125 8.125C4.53125 7.86613 4.74112 7.65625 5 7.65625H6.5625C6.82137 7.65625 7.03125 7.86613 7.03125 8.125C7.03125 8.38387 6.82137 8.59375 6.5625 8.59375H5C4.74112 8.59375 4.53125 8.38387 4.53125 8.125ZM4.53125 10.625C4.53125 10.3661 4.74112 10.1562 5 10.1562H5.9375C6.19638 10.1562 6.40625 10.3661 6.40625 10.625C6.40625 10.8839 6.19638 11.0938 5.9375 11.0938H5C4.74112 11.0938 4.53125 10.8839 4.53125 10.625Z" fill="#3A3FBB"/>
</svg>
