<svg width="15" height="17" viewBox="0 0 15 17" fill="none" xmlns="http://www.w3.org/2000/svg">
<path fill-rule="evenodd" clip-rule="evenodd" d="M0.976308 0.976308C-9.93411e-08 1.95262 0 3.52397 0 6.66667V10C0 13.1427 -9.93411e-08 14.7141 0.976308 15.6903C1.95262 16.6667 3.52397 16.6667 6.66667 16.6667H8.33333C11.476 16.6667 13.0474 16.6667 14.0237 15.6903C14.9843 14.7297 14.9997 13.193 15 10.1501L12.6514 12.4987C12.4266 12.7236 12.2425 12.9078 12.0346 13.0701C11.7909 13.2601 11.5273 13.423 11.2484 13.5559C11.0103 13.6693 10.7632 13.7517 10.4615 13.8521L8.53508 14.4943C7.91125 14.7022 7.2235 14.5398 6.7585 14.0748C6.29358 13.6098 6.13117 12.9221 6.33917 12.2983L6.56708 11.6146L6.963 10.4268L6.98125 10.3719C7.08175 10.0702 7.164 9.823 7.27742 9.58492C7.41033 9.306 7.57325 9.04242 7.76333 8.79883C7.9255 8.59083 8.10975 8.40675 8.33475 8.18192L11.6734 4.84323L12.6 3.9167L12.706 3.81068C13.3022 3.21451 14.0836 2.91651 14.865 2.91667C14.7389 2.05787 14.4951 1.44773 14.0237 0.976308C13.0474 9.93411e-08 11.476 0 8.33333 0H6.66667C3.52397 0 1.95262 9.93411e-08 0.976308 0.976308ZM3.54167 5.83333C3.54167 5.48816 3.82149 5.20833 4.16667 5.20833H9.58333C9.9285 5.20833 10.2083 5.48816 10.2083 5.83333C10.2083 6.17851 9.9285 6.45833 9.58333 6.45833H4.16667C3.82149 6.45833 3.54167 6.17851 3.54167 5.83333ZM3.54167 9.16667C3.54167 8.8215 3.82149 8.54167 4.16667 8.54167H6.25C6.59517 8.54167 6.875 8.8215 6.875 9.16667C6.875 9.51183 6.59517 9.79167 6.25 9.79167H4.16667C3.82149 9.79167 3.54167 9.51183 3.54167 9.16667ZM3.54167 12.5C3.54167 12.1548 3.82149 11.875 4.16667 11.875H5.41667C5.76184 11.875 6.04167 12.1548 6.04167 12.5C6.04167 12.8452 5.76184 13.125 5.41667 13.125H4.16667C3.82149 13.125 3.54167 12.8452 3.54167 12.5Z" fill="#1C274C" fill-opacity="0.5"/>
</svg>
