<svg width="14" height="14" viewBox="0 0 14 14" fill="none" xmlns="http://www.w3.org/2000/svg">
<path fill-rule="evenodd" clip-rule="evenodd" d="M12.4048 0.549175C11.6726 -0.183057 10.4854 -0.18306 9.75313 0.549175L0.90465 9.39769C0.6429 9.65944 0.464482 9.99281 0.391888 10.3558L0.0249691 12.1904C-0.149961 13.065 0.621188 13.8362 1.49584 13.6613L3.33043 13.2943C3.69341 13.2218 4.02678 13.0433 4.28853 12.7816L13.137 3.93306C13.8692 3.20082 13.8692 2.01364 13.137 1.28141L12.4048 0.549175ZM10.637 1.43306C10.8811 1.18898 11.2768 1.18898 11.5209 1.43306L12.2531 2.16529C12.4972 2.40937 12.4972 2.80509 12.2531 3.04918L10.5834 4.71892L8.96731 3.1028L10.637 1.43306ZM8.08338 3.98669L1.78853 10.2816C1.70128 10.3688 1.64181 10.4799 1.61761 10.6009L1.25069 12.4355L3.08528 12.0686C3.20628 12.0444 3.3174 11.9849 3.40465 11.8977L9.6995 5.6028L8.08338 3.98669Z" fill="#0F0F0F" fill-opacity="0.5"/>
</svg>
