<svg width="15" height="15" viewBox="0 0 15 15" fill="none" xmlns="http://www.w3.org/2000/svg">
<path d="M10.9566 4.85625C10.9129 4.85 10.8691 4.85 10.8254 4.85625C9.85664 4.825 9.08789 4.03125 9.08789 3.05625C9.08789 2.0625 9.89414 1.25 10.8941 1.25C11.8879 1.25 12.7004 2.05625 12.7004 3.05625C12.6941 4.03125 11.9254 4.825 10.9566 4.85625Z" fill="#3A3FBB"/>
<path d="M12.9957 9.18775C12.2957 9.6565 11.3145 9.8315 10.4082 9.71275C10.6457 9.20025 10.7707 8.6315 10.777 8.0315C10.777 7.4065 10.6395 6.81275 10.377 6.294C11.302 6.169 12.2832 6.344 12.9895 6.81275C13.977 7.46275 13.977 8.5315 12.9957 9.18775Z" fill="#3A3FBB"/>
<path d="M4.02461 4.85625C4.06836 4.85 4.11211 4.85 4.15586 4.85625C5.12461 4.825 5.89336 4.03125 5.89336 3.05625C5.89336 2.05625 5.08711 1.25 4.08711 1.25C3.09336 1.25 2.28711 2.05625 2.28711 3.05625C2.28711 4.03125 3.05586 4.825 4.02461 4.85625Z" fill="#3A3FBB"/>
<path d="M4.09492 8.03162C4.09492 8.63787 4.22617 9.21287 4.46367 9.73162C3.58242 9.82537 2.66367 9.63787 1.98867 9.19412C1.00117 8.53787 1.00117 7.46912 1.98867 6.81287C2.65742 6.36287 3.60117 6.18162 4.48867 6.28162C4.23242 6.80662 4.09492 7.40037 4.09492 8.03162Z" fill="#3A3FBB"/>
<path d="M7.57501 9.91875C7.52501 9.9125 7.46876 9.9125 7.41251 9.91875C6.26251 9.88125 5.34375 8.9375 5.34375 7.775C5.35 6.5875 6.30626 5.625 7.50001 5.625C8.68751 5.625 9.65001 6.5875 9.65001 7.775C9.64376 8.9375 8.73126 9.88125 7.57501 9.91875Z" fill="#3A3FBB"/>
<path d="M5.54375 11.2129C4.6 11.8441 4.6 12.8816 5.54375 13.5066C6.61876 14.2254 8.38126 14.2254 9.45626 13.5066C10.4 12.8754 10.4 11.8379 9.45626 11.2129C8.38751 10.4941 6.62501 10.4941 5.54375 11.2129Z" fill="#3A3FBB"/>
</svg>
