<svg width="20" height="20" viewBox="0 0 20 20" fill="none" xmlns="http://www.w3.org/2000/svg">
<path d="M14.6074 6.47496C14.5491 6.46663 14.4907 6.46663 14.4324 6.47496C13.1407 6.43329 12.1157 5.37496 12.1157 4.07496C12.1157 2.74996 13.1907 1.66663 14.5241 1.66663C15.8491 1.66663 16.9324 2.74163 16.9324 4.07496C16.9241 5.37496 15.8991 6.43329 14.6074 6.47496Z" fill="#292D32" fill-opacity="0.5"/>
<path d="M17.3261 12.2503C16.3928 12.8753 15.0845 13.1087 13.8761 12.9503C14.1928 12.267 14.3595 11.5087 14.3678 10.7087C14.3678 9.87534 14.1845 9.08367 13.8345 8.392C15.0678 8.22534 16.3761 8.45867 17.3178 9.08367C18.6345 9.95034 18.6345 11.3753 17.3261 12.2503Z" fill="#292D32" fill-opacity="0.5"/>
<path d="M5.36696 6.47496C5.42529 6.46663 5.48363 6.46663 5.54196 6.47496C6.83363 6.43329 7.85863 5.37496 7.85863 4.07496C7.85863 2.74163 6.78363 1.66663 5.45029 1.66663C4.12529 1.66663 3.05029 2.74163 3.05029 4.07496C3.05029 5.37496 4.07529 6.43329 5.36696 6.47496Z" fill="#292D32" fill-opacity="0.5"/>
<path d="M5.45941 10.7088C5.45941 11.5172 5.63441 12.2838 5.95107 12.9755C4.77607 13.1005 3.55107 12.8505 2.65107 12.2588C1.33441 11.3838 1.33441 9.95883 2.65107 9.08383C3.54274 8.48383 4.80107 8.24215 5.98441 8.3755C5.64274 9.0755 5.45941 9.86716 5.45941 10.7088Z" fill="#292D32" fill-opacity="0.5"/>
<path d="M10.1005 13.225C10.0338 13.2167 9.95884 13.2167 9.88384 13.225C8.3505 13.175 7.12549 11.9167 7.12549 10.3667C7.13382 8.78333 8.40884 7.5 10.0005 7.5C11.5838 7.5 12.8672 8.78333 12.8672 10.3667C12.8588 11.9167 11.6422 13.175 10.1005 13.225Z" fill="#292D32" fill-opacity="0.5"/>
<path d="M7.39248 14.9504C6.13415 15.7921 6.13415 17.1754 7.39248 18.0088C8.82583 18.9671 11.1758 18.9671 12.6092 18.0088C13.8675 17.1671 13.8675 15.7838 12.6092 14.9504C11.1842 13.9921 8.83416 13.9921 7.39248 14.9504Z" fill="#292D32" fill-opacity="0.5"/>
</svg>
