<svg width="20" height="20" viewBox="0 0 20 20" fill="none" xmlns="http://www.w3.org/2000/svg">
<path fill-rule="evenodd" clip-rule="evenodd" d="M9.99984 3.33329C6.31794 3.33329 3.33317 6.31806 3.33317 9.99996C3.33317 13.6819 6.31794 16.6666 9.99984 16.6666C13.6818 16.6666 16.6665 13.6819 16.6665 9.99996C16.6665 6.31806 13.6818 3.33329 9.99984 3.33329ZM1.6665 9.99996C1.6665 5.39758 5.39746 1.66663 9.99984 1.66663C14.6022 1.66663 18.3332 5.39758 18.3332 9.99996C18.3332 14.6023 14.6022 18.3333 9.99984 18.3333C5.39746 18.3333 1.6665 14.6023 1.6665 9.99996ZM9.85684 5.63109C10.3171 5.63109 10.6902 6.00418 10.6902 6.46443V10.6037L13.6293 11.721C14.0595 11.8845 14.2757 12.3659 14.1121 12.796C13.9486 13.2263 13.4673 13.4425 13.0371 13.2789L9.56075 11.9575C9.23734 11.8345 9.0235 11.5245 9.0235 11.1785V6.46443C9.0235 6.00418 9.39659 5.63109 9.85684 5.63109Z" fill="#0F1729" fill-opacity="0.5"/>
</svg>
