<svg width="20" height="20" viewBox="0 0 20 20" fill="none" xmlns="http://www.w3.org/2000/svg">
<path d="M7.84755 15.4504C8.49228 14.4978 9.40278 13.333 9.99953 13.333C10.5963 13.333 11.5068 14.4978 12.1515 15.4504C12.5103 15.9804 12.1194 16.6663 11.4793 16.6663H8.51978C7.87969 16.6663 7.48878 15.9804 7.84755 15.4504Z" fill="#3A3FBB"/>
<path d="M10.0001 7.5C10.2927 7.5 10.8214 6.86197 11.2729 6.23057C11.65 5.70331 11.2577 5 10.6095 5H9.3907C8.74254 5 8.35029 5.70331 8.72737 6.23057C9.17887 6.86197 9.70754 7.5 10.0001 7.5Z" fill="#3A3FBB"/>
<path fill-rule="evenodd" clip-rule="evenodd" d="M3.33398 1.66634C3.33398 1.20611 3.70708 0.833008 4.16732 0.833008H15.834C16.2942 0.833008 16.6673 1.20611 16.6673 1.66634C16.6673 2.12657 16.2942 2.49967 15.834 2.49967H14.9778C14.8651 4.5091 14.3423 6.03207 13.5759 7.28376C12.9075 8.37559 12.0677 9.23368 11.2402 9.99967C12.0677 10.7657 12.9075 11.6238 13.5759 12.7156C14.3423 13.9673 14.8651 15.4903 14.9778 17.4997H15.834C16.2942 17.4997 16.6673 17.8728 16.6673 18.333C16.6673 18.7933 16.2942 19.1663 15.834 19.1663H4.16732C3.70708 19.1663 3.33398 18.7933 3.33398 18.333C3.33398 17.8728 3.70708 17.4997 4.16732 17.4997H5.02348C5.13621 15.4903 5.65902 13.9673 6.42536 12.7156C7.09384 11.6238 7.93367 10.7657 8.76115 9.99967C7.93367 9.23368 7.09384 8.37559 6.42536 7.28376C5.65902 6.03207 5.13621 4.5091 5.02348 2.49967H4.16732C3.70708 2.49967 3.33398 2.12657 3.33398 1.66634ZM13.3082 17.4997C13.1993 15.7923 12.7547 14.5661 12.1545 13.5858C11.5735 12.6368 10.8302 11.8864 10.0007 11.1244C9.17115 11.8864 8.42782 12.6368 7.84678 13.5858C7.24661 14.5661 6.80198 15.7923 6.69308 17.4997H13.3082ZM6.69308 2.49967H13.3082C13.1993 4.2071 12.7547 5.43322 12.1545 6.41351C11.5735 7.36258 10.8302 8.1129 10.0007 8.87492C9.17115 8.1129 8.42782 7.36258 7.84678 6.41351C7.24661 5.43322 6.80198 4.2071 6.69308 2.49967Z" fill="#3A3FBB"/>
</svg>
