<svg width="27" height="27" viewBox="0 0 27 27" fill="none" xmlns="http://www.w3.org/2000/svg">
<g clip-path="url(#clip0_2897_1961)">
<path d="M5.07852 12.7097C4.91065 12.8843 4.81689 13.1171 4.81689 13.3594C4.81689 13.6016 4.91065 13.8344 5.07852 14.0091L9.87195 18.99C10.457 19.5984 11.4845 19.1841 11.4845 18.3403V15.4687C11.4845 15.4066 11.5091 15.347 11.5531 15.303C11.5971 15.2591 11.6567 15.2344 11.7188 15.2344H20.8595C21.1081 15.2344 21.3466 15.1356 21.5224 14.9598C21.6982 14.784 21.797 14.5455 21.797 14.2969V12.4219C21.797 12.1732 21.6982 11.9348 21.5224 11.759C21.3466 11.5831 21.1081 11.4844 20.8595 11.4844H11.7188C11.6567 11.4844 11.5971 11.4597 11.5531 11.4157C11.5091 11.3718 11.4845 11.3121 11.4845 11.25V8.37843C11.4845 7.53468 10.457 7.1203 9.87195 7.72874L5.07852 12.7097Z" fill="#3A3FBB"/>
</g>
<defs>
<clipPath id="clip0_2897_1961">
<rect width="26.25" height="26.25" fill="white"/>
</clipPath>
</defs>
</svg>
