<svg width="10" height="10" viewBox="0 0 10 10" fill="none" xmlns="http://www.w3.org/2000/svg">
<path d="M7 2.5V2.1C7 1.53995 7 1.25992 6.891 1.04601C6.79515 0.857845 6.64215 0.704865 6.454 0.608995C6.2401 0.5 5.96005 0.5 5.4 0.5H4.6C4.03995 0.5 3.75992 0.5 3.54601 0.608995C3.35785 0.704865 3.20486 0.857845 3.10899 1.04601C3 1.25992 3 1.53995 3 2.1V2.5M0.513605 4.01315C0.69388 4.18595 2.64286 6 5 6C7.35715 6 9.3061 4.18595 9.4864 4.01315M0.513605 4.01315C0.5 4.2465 0.5 4.53325 0.5 4.9V7.1C0.5 7.9401 0.5 8.3601 0.66349 8.681C0.8073 8.96325 1.03677 9.1927 1.31902 9.3365C1.63988 9.5 2.05992 9.5 2.9 9.5H7.1C7.9401 9.5 8.3601 9.5 8.681 9.3365C8.96325 9.1927 9.1927 8.96325 9.3365 8.681C9.5 8.3601 9.5 7.9401 9.5 7.1V4.9C9.5 4.53325 9.5 4.2465 9.4864 4.01315M0.513605 4.01315C0.531165 3.71205 0.57138 3.4998 0.66349 3.31902C0.8073 3.03677 1.03677 2.8073 1.31902 2.66349C1.63988 2.5 2.05992 2.5 2.9 2.5H7.1C7.9401 2.5 8.3601 2.5 8.681 2.66349C8.96325 2.8073 9.1927 3.03677 9.3365 3.31902C9.4286 3.4998 9.46885 3.71205 9.4864 4.01315" stroke="#3A3FBB" stroke-linecap="round" stroke-linejoin="round"/>
</svg>
