<svg width="239" height="139" viewBox="0 0 239 139" fill="none" xmlns="http://www.w3.org/2000/svg">
<path d="M115.326 36.3418C111.892 10.8911 87.9093 -7.65867 64.6061 3.13421C57.3336 6.50248 50.4365 10.4238 44.0333 14.8535C25.5168 27.663 11.962 44.1477 5.0829 62.2232C-1.79619 80.2987 -1.69057 99.153 5.38642 116.402C18.4206 148.171 62.8702 136.521 97.1928 137.563C100.407 137.661 103.702 137.8 107.101 137.883C108.435 137.916 109.753 137.8 111.073 137.597C121.187 136.042 136.586 135.533 150.554 136.916C162.46 138.095 205.43 139.774 217.315 138.4C221.08 137.965 227.855 136.05 229.586 132.679C232.322 127.349 234.739 120.908 236.739 114.046C244.238 88.3028 220.906 69.0198 194.334 72.6045L167.625 76.2076C142.174 79.641 118.759 61.7925 115.326 36.3418Z" fill="#C4F000" fill-opacity="0.2"/>
</svg>
