<svg width="256" height="148" viewBox="0 0 256 148" fill="none" xmlns="http://www.w3.org/2000/svg">
<path d="M125.341 52.9769C119.235 13.6861 80.42 -14.7618 47.9853 8.23912C47.0341 8.91364 46.093 9.59895 45.1622 10.2949C25.6589 24.8782 11.5832 43.4856 4.71498 63.764C-2.1532 84.0424 -1.50534 105.081 6.57664 124.219C18.8819 153.359 53.6931 147.107 85.3 145.872C95.8324 145.46 106.332 146.412 115.914 146.592C117.615 146.624 119.303 146.441 120.979 146.151C135.978 143.556 164.206 142.097 185.131 145.149C195.381 146.644 224.426 146.701 234.701 145.388C238.059 144.959 245.57 143.059 247.049 140.014C249.6 134.762 251.852 128.468 253.742 121.695C261.641 93.3875 233.236 75.5668 206.189 87.0636L181.802 97.4297C169.679 102.582 155.782 101.323 144.783 94.0758C135.521 87.9723 129.267 78.2404 127.563 67.2791L125.341 52.9769Z" fill="#B7EBFF" fill-opacity="0.7"/>
</svg>
