<svg width="12" height="12" viewBox="0 0 12 12" fill="none" xmlns="http://www.w3.org/2000/svg">
<path d="M7.75 3.75C7.75 4.7165 6.9665 5.5 6 5.5C5.0335 5.5 4.25 4.7165 4.25 3.75C4.25 2.7835 5.0335 2 6 2C6.9665 2 7.75 2.7835 7.75 3.75Z" fill="#3A3FBB"/>
<path opacity="0.4" d="M9.75 3.75C9.75 4.44035 9.19035 5 8.5 5C7.80965 5 7.25 4.44035 7.25 3.75C7.25 3.05964 7.80965 2.5 8.5 2.5C9.19035 2.5 9.75 3.05964 9.75 3.75Z" fill="#3A3FBB"/>
<path opacity="0.4" d="M2.25 3.75C2.25 4.44035 2.80964 5 3.5 5C4.19035 5 4.75 4.44035 4.75 3.75C4.75 3.05964 4.19035 2.5 3.5 2.5C2.80964 2.5 2.25 3.05964 2.25 3.75Z" fill="#3A3FBB"/>
<path d="M9 8.25C9 9.2165 7.65685 10 6 10C4.34315 10 3 9.2165 3 8.25C3 7.2835 4.34315 6.5 6 6.5C7.65685 6.5 9 7.2835 9 8.25Z" fill="#3A3FBB"/>
<path opacity="0.4" d="M11 8.25C11 8.94035 10.1045 9.5 9 9.5C7.89545 9.5 7 8.94035 7 8.25C7 7.55965 7.89545 7 9 7C10.1045 7 11 7.55965 11 8.25Z" fill="#3A3FBB"/>
<path opacity="0.4" d="M1 8.25C1 8.94035 1.89543 9.5 3 9.5C4.10457 9.5 5 8.94035 5 8.25C5 7.55965 4.10457 7 3 7C1.89543 7 1 7.55965 1 8.25Z" fill="#3A3FBB"/>
</svg>
