<svg width="20" height="13" viewBox="0 0 20 13" fill="none" xmlns="http://www.w3.org/2000/svg">
<path d="M7.27707 4.76305C7.27707 3.81641 6.72176 3.03648 5.66023 2.8623C5.51414 2.91094 5.3584 2.9382 5.19613 2.9382C5.03395 2.9382 4.87793 2.91094 4.73184 2.8623C3.67082 3.03652 3.11523 3.81645 3.11523 4.76305H5.19617H7.27707Z" fill="#3A3FBB"/>
<path d="M5.1973 2.60086C5.82648 2.60086 6.33633 2.09102 6.33633 1.46215V1.13898C6.33633 0.509805 5.82648 0 5.1973 0C4.56816 0 4.05859 0.509844 4.05859 1.13898V1.46215C4.05859 2.09105 4.56816 2.60086 5.1973 2.60086Z" fill="#3A3FBB"/>
<path d="M12.0818 4.76305C12.0818 3.81641 11.5262 3.03648 10.4647 2.8623C10.3186 2.91094 10.1631 2.9382 10.0009 2.9382C9.83863 2.9382 9.68266 2.91094 9.53652 2.8623C8.47523 3.03652 7.91992 3.81645 7.91992 4.76305H10.0009H12.0818Z" fill="#3A3FBB"/>
<path d="M10.0003 2.60086C10.6292 2.60086 11.1391 2.09102 11.1391 1.46215V1.13898C11.1391 0.509805 10.6292 0 10.0003 0C9.37113 0 8.86133 0.509844 8.86133 1.13898V1.46215C8.86133 2.09105 9.37113 2.60086 10.0003 2.60086Z" fill="#3A3FBB"/>
<path d="M16.8842 4.76305C16.8842 3.81641 16.3286 3.03648 15.2674 2.8623C15.1212 2.91094 14.9655 2.9382 14.8036 2.9382C14.6411 2.9382 14.4854 2.91094 14.3392 2.8623C13.278 3.03652 12.7227 3.81645 12.7227 4.76305H14.8036H16.8842Z" fill="#3A3FBB"/>
<path d="M14.8033 2.60086C15.432 2.60086 15.9421 2.09102 15.9421 1.46215V1.13898C15.9421 0.509805 15.432 0 14.8033 0C14.1741 0 13.6641 0.509844 13.6641 1.13898V1.46215C13.6641 2.09105 14.1741 2.60086 14.8033 2.60086Z" fill="#3A3FBB"/>
<path d="M19.9691 12.1588L17.1789 5.67652C17.1191 5.53797 16.9829 5.44824 16.8321 5.44824H3.16804C3.01726 5.44824 2.88101 5.53793 2.82148 5.67629L0.0307723 12.1588C-0.019384 12.2753 -0.00770429 12.4094 0.0619832 12.5155C0.131905 12.6213 0.250225 12.6852 0.377374 12.6852H6.89651C7.3455 11.9263 8.11952 11.3757 9.20573 11.1976C9.45585 11.2805 9.72257 11.3273 10.0003 11.3273C10.278 11.3273 10.5447 11.2805 10.7948 11.1976C11.8808 11.3757 12.6547 11.9263 13.1035 12.6852H19.6228C19.7497 12.6852 19.8683 12.6213 19.9379 12.5155C20.0076 12.4094 20.0195 12.2753 19.9691 12.1588ZM11.9496 8.80055C11.9496 9.87715 11.0768 10.7499 10.0002 10.7499C8.92331 10.7499 8.05081 9.87715 8.05081 8.80055V8.2473C8.05081 7.1707 8.92335 6.29793 10.0002 6.29793C11.0768 6.29793 11.9496 7.1707 11.9496 8.2473V8.80055Z" fill="#3A3FBB"/>
</svg>
