<svg width="165" height="101" viewBox="0 0 165 101" fill="none" xmlns="http://www.w3.org/2000/svg">
<path d="M83.3409 72.8864C79.5985 72.8864 76.3864 71.9394 73.7045 70.0455C71.0379 68.1364 68.9848 65.3864 67.5455 61.7955C66.1212 58.1894 65.4091 53.8485 65.4091 48.7727C65.4242 43.697 66.1439 39.3788 67.5682 35.8182C69.0076 32.2424 71.0606 29.5152 73.7273 27.6364C76.4091 25.7576 79.6136 24.8182 83.3409 24.8182C87.0682 24.8182 90.2727 25.7576 92.9545 27.6364C95.6364 29.5152 97.6894 32.2424 99.1136 35.8182C100.553 39.3939 101.273 43.7121 101.273 48.7727C101.273 53.8636 100.553 58.2121 99.1136 61.8182C97.6894 65.4091 95.6364 68.1515 92.9545 70.0455C90.2879 71.9394 87.0833 72.8864 83.3409 72.8864ZM83.3409 65.7727C86.25 65.7727 88.5455 64.3409 90.2273 61.4773C91.9242 58.5985 92.7727 54.3636 92.7727 48.7727C92.7727 45.0758 92.3864 41.9697 91.6136 39.4545C90.8409 36.9394 89.75 35.0455 88.3409 33.7727C86.9318 32.4848 85.2652 31.8409 83.3409 31.8409C80.447 31.8409 78.1591 33.2803 76.4773 36.1591C74.7955 39.0227 73.947 43.2273 73.9318 48.7727C73.9167 52.4848 74.2879 55.6061 75.0455 58.1364C75.8182 60.6667 76.9091 62.5758 78.3182 63.8636C79.7273 65.1364 81.4015 65.7727 83.3409 65.7727Z" fill="white"/>
<path d="M117.227 65.9364L118.1 60.9844L136.752 40.5087L140.881 41.2369L139.638 48.2872L137.12 47.8432L124.556 61.6727L124.509 61.9413L144.871 65.5317L143.968 70.6516L117.227 65.9364ZM132.503 75.2071L133.894 67.3175L134.352 65.1135L138.632 40.8402L144.507 41.8762L138.445 76.2549L132.503 75.2071Z" fill="white"/>
<path d="M20.8821 70.6044L20.0089 65.6524L30.5324 40.0324L34.6619 39.3043L35.905 46.3546L33.3871 46.7986L26.3108 64.0912L26.3581 64.3598L46.7202 60.7694L47.6229 65.8893L20.8821 70.6044ZM38.4072 74.0915L37.0161 66.2018L36.6925 63.9742L32.4125 39.7009L38.2877 38.6649L44.3496 73.0437L38.4072 74.0915Z" fill="white"/>
</svg>
