<svg width="480" height="250" viewBox="0 0 480 250" fill="none" xmlns="http://www.w3.org/2000/svg">
<path d="M42.8642 177.117L39.9536 160.61L75.032 75.2099L88.7969 72.7828L92.9408 96.2839L84.5475 97.7638L60.96 155.406L61.1178 156.301L128.991 144.333L132 161.4L42.8642 177.117ZM101.281 188.74L96.6442 162.441L95.5657 155.016L81.2989 74.1049L100.883 70.6517L121.09 185.247L101.281 188.74Z" fill="white"/>
<path d="M246.021 186.493C235.496 186.493 226.462 183.83 218.919 178.503C211.419 173.134 205.645 165.399 201.597 155.3C197.591 145.158 195.588 132.949 195.588 118.673C195.631 104.398 197.655 92.2528 201.661 82.2386C205.709 72.1818 211.483 64.5114 218.983 59.2273C226.526 53.9432 235.538 51.3011 246.021 51.3011C256.504 51.3011 265.517 53.9432 273.06 59.2273C280.602 64.5114 286.376 72.1818 290.382 82.2386C294.43 92.2955 296.455 104.44 296.455 118.673C296.455 132.991 294.43 145.222 290.382 155.364C286.376 165.463 280.602 173.176 273.06 178.503C265.56 183.83 256.547 186.493 246.021 186.493ZM246.021 166.486C254.203 166.486 260.659 162.459 265.389 154.405C270.162 146.308 272.548 134.398 272.548 118.673C272.548 108.276 271.462 99.5398 269.288 92.4659C267.115 85.392 264.047 80.0653 260.084 76.4858C256.121 72.8636 251.433 71.0526 246.021 71.0526C237.882 71.0526 231.447 75.1008 226.717 83.1974C221.987 91.2514 219.601 103.077 219.558 118.673C219.516 129.114 220.56 137.892 222.69 145.009C224.864 152.125 227.932 157.494 231.895 161.116C235.858 164.696 240.567 166.486 246.021 166.486Z" fill="white"/>
<path d="M347.22 161.398L350.13 144.891L412.302 76.6389L426.067 79.066L421.923 102.567L413.529 101.087L371.65 147.186L371.492 148.081L439.365 160.049L436.356 177.115L347.22 161.398ZM398.138 192.3L402.776 166.001L404.302 158.655L418.569 77.7439L438.153 81.1971L417.947 195.793L398.138 192.3Z" fill="white"/>
</svg>
