<svg width="30" height="30" viewBox="0 0 30 30" fill="none" xmlns="http://www.w3.org/2000/svg">
<g clip-path="url(#clip0_9_1726)">
<path fill-rule="evenodd" clip-rule="evenodd" d="M15 7.5C10.8579 7.5 7.5 10.8579 7.5 15C7.5 19.1421 10.8579 22.5 15 22.5C19.1421 22.5 22.5 19.1421 22.5 15C22.5 10.8579 19.1421 7.5 15 7.5ZM11.25 15C11.25 12.9289 12.9289 11.25 15 11.25C17.0711 11.25 18.75 12.9289 18.75 15C18.75 17.0711 17.0711 18.75 15 18.75C12.9289 18.75 11.25 17.0711 11.25 15Z" fill="#FCB732"/>
<path fill-rule="evenodd" clip-rule="evenodd" d="M15 0C6.71572 0 0 6.71572 0 15C0 23.2843 6.71572 30 15 30C23.2843 30 30 23.2843 30 15C30 6.71572 23.2843 0 15 0ZM3.75 15C3.75 8.78679 8.78679 3.75 15 3.75C21.2132 3.75 26.25 8.78679 26.25 15C26.25 21.2132 21.2132 26.25 15 26.25C8.78679 26.25 3.75 21.2132 3.75 15Z" fill="#FCB732"/>
</g>
<defs>
<clipPath id="clip0_9_1726">
<rect width="30" height="30" fill="white"/>
</clipPath>
</defs>
</svg>
