<svg width="30" height="30" viewBox="0 0 30 30" fill="none" xmlns="http://www.w3.org/2000/svg">
<path fill-rule="evenodd" clip-rule="evenodd" d="M4.33059 4.33059C2.5 6.16116 2.5 9.10744 2.5 15C2.5 20.8925 2.5 23.8389 4.33059 25.6694C6.16116 27.5 9.10744 27.5 15 27.5C20.8925 27.5 23.8389 27.5 25.6694 25.6694C27.5 23.8389 27.5 20.8925 27.5 15C27.5 9.10744 27.5 6.16116 25.6694 4.33059C23.8389 2.5 20.8925 2.5 15 2.5C9.10744 2.5 6.16116 2.5 4.33059 4.33059ZM17.1875 12.5C17.1875 13.0177 17.6072 13.4375 18.125 13.4375H18.9866L16.471 15.9532C16.3489 16.0752 16.1511 16.0752 16.029 15.9532L14.0467 13.971C13.1925 13.1167 11.8075 13.1167 10.9532 13.971L8.08709 16.8371C7.72097 17.2032 7.72097 17.7967 8.08709 18.1629C8.4532 18.529 9.0468 18.529 9.41291 18.1629L12.279 15.2967C12.4011 15.1747 12.5989 15.1747 12.721 15.2967L14.7032 17.279C15.5575 18.1332 16.9425 18.1332 17.7967 17.279L20.3125 14.7634V15.625C20.3125 16.1427 20.7322 16.5625 21.25 16.5625C21.7677 16.5625 22.1875 16.1427 22.1875 15.625V12.5C22.1875 11.9822 21.7677 11.5625 21.25 11.5625H18.125C17.6072 11.5625 17.1875 11.9822 17.1875 12.5Z" fill="#4BB3FF"/>
</svg>
