<svg width="20" height="20" viewBox="0 0 20 20" fill="none" xmlns="http://www.w3.org/2000/svg">
<path d="M16.875 7.49997C16.7093 7.49997 16.5503 7.56582 16.4331 7.68303C16.3159 7.80024 16.25 7.95921 16.25 8.12497V10.625C16.25 10.7907 16.3159 10.9497 16.4331 11.0669C16.5503 11.1841 16.7093 11.25 16.875 11.25C17.0408 11.25 17.1998 11.1841 17.317 11.0669C17.4342 10.9497 17.5 10.7907 17.5 10.625V8.12497C17.5 7.95921 17.4342 7.80024 17.317 7.68303C17.1998 7.56582 17.0408 7.49997 16.875 7.49997ZM16.4313 5.18122C16.3734 5.23962 16.3275 5.30888 16.2964 5.38503C16.2653 5.46118 16.2496 5.54272 16.25 5.62497C16.2491 5.70623 16.2639 5.7869 16.2938 5.86247C16.3303 5.93701 16.3765 6.00636 16.4313 6.06872C16.4894 6.1273 16.5585 6.1738 16.6347 6.20553C16.7108 6.23726 16.7925 6.2536 16.875 6.2536C16.9576 6.2536 17.0392 6.23726 17.1154 6.20553C17.1916 6.1738 17.2607 6.1273 17.3188 6.06872C17.3739 6.0079 17.4183 5.93816 17.45 5.86247C17.4821 5.78733 17.4991 5.70665 17.5 5.62497C17.5008 5.50083 17.4645 5.37929 17.3959 5.27584C17.3273 5.17239 17.2294 5.09172 17.1147 5.04412C17.0001 4.99651 16.8738 4.98413 16.7521 5.00855C16.6304 5.03297 16.5187 5.09308 16.4313 5.18122Z" fill="#96A2FD"/>
<path d="M15.625 0.625H8.75C8.66731 0.625343 8.58551 0.642093 8.50933 0.674278C8.43316 0.706464 8.36413 0.753445 8.30625 0.8125L2.68125 6.4375C2.56578 6.55391 2.50069 6.71104 2.5 6.875V17.5C2.5 17.9973 2.69754 18.4742 3.04917 18.8258C3.40081 19.1775 3.87772 19.375 4.375 19.375H15.625C16.1223 19.375 16.5992 19.1775 16.9508 18.8258C17.3025 18.4742 17.5 17.9973 17.5 17.5V13.125C17.5 12.9592 17.4342 12.8003 17.3169 12.6831C17.1997 12.5658 17.0408 12.5 16.875 12.5C16.7092 12.5 16.5503 12.5658 16.4331 12.6831C16.3158 12.8003 16.25 12.9592 16.25 13.125V17.5C16.25 17.6658 16.1842 17.8247 16.0669 17.9419C15.9497 18.0592 15.7908 18.125 15.625 18.125H4.375C4.20924 18.125 4.05027 18.0592 3.93306 17.9419C3.81585 17.8247 3.75 17.6658 3.75 17.5V8.125H8.125C8.62228 8.125 9.09919 7.92746 9.45083 7.57583C9.80246 7.22419 10 6.74728 10 6.25V1.875H15.625C15.7908 1.875 15.9497 1.94085 16.0669 2.05806C16.1842 2.17527 16.25 2.33424 16.25 2.5V3.125C16.25 3.29076 16.3158 3.44973 16.4331 3.56694C16.5503 3.68415 16.7092 3.75 16.875 3.75C17.0408 3.75 17.1997 3.68415 17.3169 3.56694C17.4342 3.44973 17.5 3.29076 17.5 3.125V2.5C17.5 2.00272 17.3025 1.52581 16.9508 1.17417C16.5992 0.822544 16.1223 0.625 15.625 0.625ZM8.75 6.25C8.75 6.41576 8.68415 6.57473 8.56694 6.69194C8.44973 6.80915 8.29076 6.875 8.125 6.875H4.00625L8.75 2.13125V6.25Z" fill="#96A2FD"/>
</svg>
