<svg width="20" height="20" viewBox="0 0 20 20" fill="none" xmlns="http://www.w3.org/2000/svg">
<path d="M4.16667 2.5H2.5V4.16667H4.16667V2.5ZM7.5 2.5H5.83333V4.16667H7.5V2.5ZM5.83333 15.8333H7.5V17.5H5.83333V15.8333ZM10.8333 15.8333H9.16667V17.5H10.8333V15.8333ZM2.5 5.83333H4.16667V7.5H2.5V5.83333ZM17.5 5.83333H15.8333V7.5H17.5V5.83333ZM15.8333 9.16667H17.5V10.8333H15.8333V9.16667ZM4.16667 9.16667H2.5V10.8333H4.16667V9.16667ZM2.5 12.5H4.16667V14.1667H2.5V12.5ZM4.16667 15.8333H2.5V17.5H4.16667V15.8333ZM9.16667 2.5H10.8333V4.16667H9.16667V2.5ZM14.1667 2.5H12.5V4.16667H14.1667V2.5ZM15.8333 2.5H17.5V4.16667H15.8333V2.5ZM17.5 14.1667H12.5V15.8333H17.5V14.1667Z" fill="#222531" fill-opacity="0.6"/>
</svg>
