<svg width="12" height="12" viewBox="0 0 12 12" fill="none" xmlns="http://www.w3.org/2000/svg">
<g clip-path="url(#clip0_3152_1923)">
<path fill-rule="evenodd" clip-rule="evenodd" d="M8.12137 7.59C8.26799 7.73625 8.26799 7.97626 8.12137 8.12251C7.97512 8.26876 7.73738 8.26876 7.59075 8.12251L6.00224 6.53252L4.4025 8.13373C4.25475 8.27998 4.01551 8.27998 3.86776 8.13373C3.72038 7.98373 3.72038 7.74375 3.86776 7.5975L5.46751 5.99625L3.879 4.41C3.73237 4.26375 3.73237 4.02374 3.879 3.87749C4.02487 3.73124 4.26262 3.73124 4.40925 3.87749L5.99776 5.46748L7.6095 3.85501C7.75725 3.70876 7.99612 3.70876 8.14387 3.85501C8.29124 4.00501 8.29124 4.24124 8.14387 4.39124L6.53249 6.00375L8.12137 7.59ZM6 0C2.68613 0 0 2.685 0 6C0 9.315 2.68613 12 6 12C9.31388 12 12 9.315 12 6C12 2.685 9.31388 0 6 0Z" fill="#0A0D1A" fill-opacity="0.7"/>
</g>
<defs>
<clipPath id="clip0_3152_1923">
<rect width="12" height="12" fill="white"/>
</clipPath>
</defs>
</svg>
