<svg width="12" height="13" viewBox="0 0 12 13" fill="none" xmlns="http://www.w3.org/2000/svg">
<path d="M8.5 10.5H11.1667M9.83333 9.25V11.75M5.83333 0.5H2.63333C1.8866 0.5 1.51323 0.5 1.22801 0.636244C0.977127 0.756081 0.773153 0.947306 0.645327 1.18251C0.5 1.4499 0.5 1.79994 0.5 2.5V9.75C0.5 10.4501 0.5 10.8001 0.645327 11.0675C0.773153 11.3027 0.977127 11.4939 1.22801 11.6137C1.51323 11.75 1.8866 11.75 2.63333 11.75H5.16667M5.83333 0.5L9.83333 4.25M5.83333 0.5V3.25C5.83333 3.60003 5.83333 3.77505 5.906 3.90874C5.96993 4.02634 6.07187 4.12196 6.19733 4.18188C6.33993 4.25 6.5266 4.25 6.9 4.25H9.83333M9.83333 4.25V6.125M3.16667 9.25H5.16667M3.16667 6.75H7.16667M3.16667 4.25H3.83333" stroke="#F5F7FF" stroke-linecap="round" stroke-linejoin="round"/>
</svg>
