<svg width="30" height="31" viewBox="0 0 30 31" fill="none" xmlns="http://www.w3.org/2000/svg">
<path d="M15 3C8.12498 3 2.49998 8.6125 2.49998 15.525C2.49998 21.775 7.07498 26.9625 13.05 27.9V19.15H9.87498V15.525H13.05V12.7625C13.05 9.625 14.9125 7.9 17.775 7.9C19.1375 7.9 20.5625 8.1375 20.5625 8.1375V11.225H18.9875C17.4375 11.225 16.95 12.1875 16.95 13.175V15.525H20.425L19.8625 19.15H16.95V27.9C19.8955 27.4348 22.5777 25.9319 24.5124 23.6625C26.447 21.3933 27.5067 18.507 27.5 15.525C27.5 8.6125 21.875 3 15 3Z" fill="#0165E1"/>
</svg>
