<svg width="31" height="31" viewBox="0 0 31 31" fill="none" xmlns="http://www.w3.org/2000/svg">
<path d="M2 11.3334C2 8.06636 2 6.43287 2.63579 5.18505C3.19506 4.08745 4.08745 3.19506 5.18505 2.63579C6.43287 2 8.06636 2 11.3334 2H18.9166C22.1836 2 23.8171 2 25.0649 2.63579C26.1626 3.19506 27.055 4.08745 27.6142 5.18505C28.25 6.43287 28.25 8.06636 28.25 11.3334V18.9166C28.25 22.1836 28.25 23.8171 27.6142 25.0649C27.055 26.1626 26.1626 27.055 25.0649 27.6142C23.8171 28.25 22.1836 28.25 18.9166 28.25H11.3334C8.06636 28.25 6.43287 28.25 5.18505 27.6142C4.08745 27.055 3.19506 26.1626 2.63579 25.0649C2 23.8171 2 22.1836 2 18.9166V11.3334Z" fill="white"/>
<path d="M20.8456 8.05688L15.1859 12.4738L9.39682 8.05688V8.05808L9.40382 8.06405V14.2489L15.1207 18.7613L20.8456 14.4231V8.05688Z" fill="#EA4335"/>
<path d="M22.3312 6.98244L20.8449 8.05682V14.4231L25.5218 10.8323V8.66921C25.5218 8.66921 24.9542 5.57978 22.3312 6.98244Z" fill="#FBBC05"/>
<path d="M20.8449 14.423V22.6803H24.4295C24.4295 22.6803 25.4496 22.5752 25.523 21.4125V10.8323L20.8449 14.423Z" fill="#34A853"/>
<path d="M9.40408 22.6876V14.2489L9.39682 14.2429L9.40408 22.6876Z" fill="#C5221F"/>
<path d="M9.39654 8.0578L7.91837 6.98939C5.29544 5.58672 4.72656 8.67497 4.72656 8.67497V10.838L9.39654 14.2427V8.0578Z" fill="#C5221F"/>
<path d="M9.39682 8.05835V14.2432L9.40408 14.2492V8.06432L9.39682 8.05835Z" fill="#C5221F"/>
<path d="M4.72656 10.8396V21.4198C4.79884 22.5838 5.82003 22.6877 5.82003 22.6877H9.4047L9.39654 14.243L4.72656 10.8396Z" fill="#4285F4"/>
</svg>
