<svg width="17" height="17" viewBox="0 0 17 17" fill="none" xmlns="http://www.w3.org/2000/svg">
<path fill-rule="evenodd" clip-rule="evenodd" d="M0.432667 4.85228C4.96705e-08 5.64273 0 6.59624 0 8.50325V9.77083C0 13.0215 9.93411e-08 14.6469 0.976308 15.6567C1.95262 16.6667 3.52397 16.6667 6.66667 16.6667H10C13.1427 16.6667 14.7141 16.6667 15.6903 15.6567C16.6667 14.6469 16.6667 13.0215 16.6667 9.77083V8.50325C16.6667 6.59624 16.6667 5.64273 16.234 4.85228C15.8013 4.06184 15.0109 3.57126 13.43 2.5901L11.7633 1.55572C10.0922 0.518575 9.25658 0 8.33333 0C7.41008 0 6.57449 0.518575 4.90336 1.55572L3.23669 2.59011C1.65579 3.57126 0.865333 4.06184 0.432667 4.85228ZM6.20551 11.1646C5.92821 10.959 5.53678 11.0172 5.33123 11.2945C5.12568 11.5718 5.18385 11.9633 5.46116 12.1688C6.2715 12.7694 7.2625 13.125 8.33333 13.125C9.40417 13.125 10.3952 12.7694 11.2055 12.1688C11.4828 11.9633 11.541 11.5718 11.3354 11.2945C11.1299 11.0172 10.7385 10.959 10.4612 11.1646C9.85417 11.6144 9.12158 11.875 8.33333 11.875C7.54508 11.875 6.8125 11.6144 6.20551 11.1646Z" fill="#3A3FBB"/>
</svg>
