<svg width="30" height="31" viewBox="0 0 30 31" fill="none" xmlns="http://www.w3.org/2000/svg">
<path d="M22.6057 5.93481C20.3257 6.00471 20.3263 9.28491 22.6057 9.35421C24.8857 9.28431 24.8851 6.00411 22.6057 5.93481Z" fill="#DD2A7B"/>
<path d="M15.0001 7.91406C10.9591 7.91406 7.68336 11.1985 7.68336 15.25C8.06886 24.9811 21.9325 24.9784 22.3165 15.25C22.3168 11.1985 19.0408 7.91406 15.0001 7.91406ZM15.0001 20.0119C12.3772 20.0119 10.2508 17.8798 10.2508 15.25C10.501 8.93346 19.5004 8.93496 19.7497 15.25C19.7494 17.8801 17.623 20.0119 15.0001 20.0119Z" fill="#DD2A7B"/>
<path d="M29.1625 9.37544C29.0569 4.37534 25.8757 1.19234 20.8744 1.08764C19.6735 0.971839 10.3273 0.969739 9.12546 1.08764C4.12536 1.19324 0.942361 4.37444 0.837661 9.37574C0.721861 10.5748 0.719461 19.924 0.837661 21.1246C0.930961 26.1085 4.14096 29.3194 9.12546 29.4124C10.3264 29.5294 19.6726 29.5294 20.8744 29.4124C22.3909 29.3431 23.4268 29.1022 24.3331 28.75C27.5092 27.4813 29.0611 24.6592 29.1625 21.1243C29.2783 19.9234 29.2804 10.5772 29.1625 9.37544ZM20.7574 26.8477C19.5757 26.9605 10.4251 26.9623 9.24246 26.8477C7.85346 26.7844 7.09896 26.5522 6.59676 26.3572C2.26206 24.3466 3.60606 20.2807 3.40176 14.6998C3.40626 13.4035 3.39906 10.789 3.40206 9.49274C3.57516 5.62814 5.39526 3.83894 9.24246 3.65234C10.4257 3.53954 19.5739 3.53774 20.7574 3.65234C24.6232 3.82544 26.4106 5.64554 26.5978 9.49244C26.6743 10.4161 26.7298 15.4585 26.5978 18.0103C26.7403 22.8031 26.5219 26.5666 20.7574 26.8477Z" fill="#DD2A7B"/>
</svg>
