<svg width="23" height="23" viewBox="0 0 23 23" fill="none" xmlns="http://www.w3.org/2000/svg">
<path d="M19.1719 19.1719H15.8381V13.95C15.8381 12.705 15.8156 11.1019 14.1038 11.1019C12.3675 11.1019 12.1013 12.4594 12.1013 13.8582V19.1719H8.7675V8.43378H11.9681V9.9019H12.0131C12.6656 8.78815 13.8806 8.12065 15.1706 8.16753C18.5494 8.16753 19.1737 10.3894 19.1737 13.2825L19.1719 19.17V19.1719ZM5.00625 6.96565C4.49414 6.96319 4.00368 6.75879 3.64138 6.39685C3.27908 6.0349 3.07421 5.54464 3.07125 5.03253C3.07125 3.97128 3.945 3.09753 5.00625 3.09753C6.0675 3.09753 6.93938 3.97128 6.94125 5.03253C6.94125 6.09378 6.0675 6.96565 5.00625 6.96565ZM6.67313 19.1719H3.33563V8.43378H6.67313V19.1719ZM20.8312 2.78686e-05H1.65937C1.22466 -0.00249706 0.806508 0.16664 0.495793 0.470683C0.185079 0.774727 0.00690875 1.18911 0 1.62378V20.8763C0.00690875 21.3109 0.185079 21.7253 0.495793 22.0294C0.806508 22.3334 1.22466 22.5026 1.65937 22.5H20.8331C21.2688 22.5036 21.6884 22.335 22.0005 22.0309C22.3126 21.7269 22.4921 21.3119 22.5 20.8763V1.6219C22.4921 1.18658 22.3125 0.772019 22.0002 0.468569C21.688 0.165119 21.2685 -0.00262172 20.8331 0.00190273L20.8312 2.78686e-05Z" fill="#0A66C2"/>
</svg>
