<svg width="20" height="19" viewBox="0 0 20 19" fill="none" xmlns="http://www.w3.org/2000/svg">
<path d="M19.8982 0.0741936C19.8092 -0.00389305 19.6825 -0.0220096 19.5751 0.027796L0.172992 9.04256C0.068538 9.09111 0.00127346 9.19533 1.78559e-05 9.31049C-0.00123775 9.42564 0.0638146 9.53129 0.167253 9.58206L5.65801 12.2767C5.7587 12.3262 5.87876 12.315 5.96869 12.2478L11.3072 8.25769L7.11625 12.5686C7.05646 12.6301 7.02597 12.7144 7.03254 12.7999L7.44982 18.2342C7.45909 18.3546 7.53981 18.4576 7.65455 18.4953C7.68522 18.5053 7.71673 18.5102 7.74788 18.5102C7.83332 18.5102 7.91643 18.4736 7.97425 18.4066L10.8886 15.0295L14.4913 16.7509C14.5695 16.7883 14.66 16.7898 14.7394 16.7553C14.8189 16.7207 14.8794 16.6533 14.9054 16.5707L19.9863 0.388513C20.0218 0.275509 19.9872 0.15228 19.8982 0.0741936Z" fill="#F8FAFF"/>
</svg>
