<svg width="30" height="30" viewBox="0 0 30 30" fill="none" xmlns="http://www.w3.org/2000/svg">
<path d="M29.8473 1.22848C29.7137 1.11135 29.5237 1.08417 29.3626 1.15888L0.259489 14.681C0.102807 14.7539 0.00191019 14.9102 2.67838e-05 15.0829C-0.00185662 15.2557 0.0957218 15.4141 0.250879 15.4903L8.48702 19.5322C8.63805 19.6064 8.81814 19.5896 8.95303 19.4888L16.9608 13.5037L10.6744 19.9701C10.5847 20.0624 10.5389 20.1887 10.5488 20.317L11.1747 28.4685C11.1886 28.6491 11.3097 28.8035 11.4818 28.8601C11.5278 28.8752 11.5751 28.8826 11.6218 28.8826C11.75 28.8826 11.8746 28.8276 11.9614 28.7271L16.3328 23.6615L21.7369 26.2435C21.8542 26.2996 21.99 26.3019 22.1092 26.2501C22.2284 26.1982 22.3191 26.0972 22.3581 25.9732L29.9794 1.69996C30.0327 1.53045 29.9807 1.34561 29.8473 1.22848Z" fill="#3A3FBB"/>
</svg>
