<svg width="30" height="30" viewBox="0 0 30 30" fill="none" xmlns="http://www.w3.org/2000/svg">
<path d="M29.8473 1.22872C29.7137 1.11159 29.5237 1.08442 29.3626 1.15913L0.259489 14.6813C0.102807 14.7541 0.00191019 14.9104 2.67838e-05 15.0832C-0.00185662 15.2559 0.0957218 15.4144 0.250879 15.4905L8.48702 19.5325C8.63805 19.6067 8.81814 19.5899 8.95303 19.4891L16.9608 13.504L10.6744 19.9703C10.5847 20.0626 10.5389 20.189 10.5488 20.3172L11.1747 28.4687C11.1886 28.6494 11.3097 28.8038 11.4818 28.8604C11.5278 28.8755 11.5751 28.8828 11.6218 28.8828C11.75 28.8828 11.8746 28.8278 11.9614 28.7274L16.3328 23.6617L21.7369 26.2438C21.8542 26.2998 21.99 26.3022 22.1092 26.2503C22.2284 26.1984 22.3191 26.0974 22.3581 25.9735L29.9794 1.7002C30.0327 1.5307 29.9807 1.34585 29.8473 1.22872Z" fill="#6864F7"/>
</svg>
