<svg width="21" height="20" viewBox="0 0 21 20" fill="none" xmlns="http://www.w3.org/2000/svg">
<path d="M20.3697 8.82331C20.8483 8.50415 20.9777 7.85743 20.6586 7.37875C20.3395 6.90007 19.6927 6.77073 19.214 7.08984L20.3697 8.82331ZM10.4168 4.83156L11.1534 4.09499C10.7466 3.6882 10.0871 3.6882 9.68029 4.09499L10.4168 4.83156ZM9.37518 10.0399C9.37518 10.6152 9.84154 11.0815 10.4168 11.0815C10.9922 11.0815 11.4585 10.6152 11.4585 10.0399H9.37518ZM7.59694 6.17833C7.19015 6.58512 7.19015 7.24467 7.59694 7.65147C8.00374 8.05831 8.66331 8.05831 9.07008 7.65147L7.59694 6.17833ZM11.7636 7.65147C12.1704 8.05831 12.83 8.05831 13.2367 7.65147C13.6435 7.24467 13.6435 6.58512 13.2367 6.17833L11.7636 7.65147ZM18.7502 8.39529V15.0399H20.8335V8.39529H18.7502ZM16.4585 17.3315H4.37518V19.4149H16.4585V17.3315ZM2.08352 15.0399V8.39529H0.000182729V15.0399H2.08352ZM3.1564 6.4546L9.1981 2.66035L8.09008 0.896094L2.04841 4.69033L3.1564 6.4546ZM11.6356 2.66035L17.6773 6.4546L18.7853 4.69033L12.7436 0.896094L11.6356 2.66035ZM9.1981 2.66035C9.90602 2.21573 10.0539 2.13936 10.1852 2.10943L9.72174 0.0782812C9.1631 0.20574 8.668 0.533156 8.09008 0.896094L9.1981 2.66035ZM12.7436 0.896094C12.1657 0.533156 11.6706 0.20574 11.112 0.0782812L10.6485 2.10943C10.7798 2.13936 10.9277 2.21573 11.6356 2.66035L12.7436 0.896094ZM10.1852 2.10943C10.3377 2.07464 10.496 2.07464 10.6485 2.10943L11.112 0.0782812C10.6545 -0.0260937 10.1792 -0.0260937 9.72174 0.0782812L10.1852 2.10943ZM4.37518 17.3315C3.77461 17.3315 3.38682 17.3307 3.09168 17.3066C2.80869 17.2835 2.70378 17.2442 2.65228 17.218L1.70646 19.0742C2.10061 19.2751 2.51021 19.3495 2.92203 19.3831C3.32168 19.4157 3.80898 19.4149 4.37518 19.4149V17.3315ZM0.000182729 15.0399C0.000182729 15.6061 -0.000629741 16.0934 0.0320265 16.493C0.0656723 16.9049 0.139964 17.3145 0.340787 17.7086L2.19705 16.7628C2.17081 16.7113 2.13156 16.6063 2.10844 16.3234C2.08433 16.0282 2.08352 15.6405 2.08352 15.0399H0.000182729ZM2.65228 17.218C2.45628 17.1182 2.29692 16.9588 2.19705 16.7628L0.340787 17.7086C0.640391 18.2966 1.11845 18.7747 1.70646 19.0742L2.65228 17.218ZM18.7502 15.0399C18.7502 15.6405 18.7493 16.0282 18.7253 16.3234C18.7022 16.6063 18.6629 16.7113 18.6366 16.7628L20.4929 17.7086C20.6937 17.3145 20.768 16.9049 20.8016 16.493C20.8343 16.0934 20.8335 15.6061 20.8335 15.0399H18.7502ZM16.4585 19.4149C17.0248 19.4149 17.5121 19.4157 17.9116 19.3831C18.3235 19.3495 18.7331 19.2751 19.1273 19.0742L18.1814 17.218C18.1299 17.2442 18.025 17.2835 17.7421 17.3066C17.4468 17.3307 17.0591 17.3315 16.4585 17.3315V19.4149ZM18.6366 16.7628C18.5367 16.9588 18.3775 17.1182 18.1814 17.218L19.1273 19.0742C19.7153 18.7747 20.1933 18.2966 20.4929 17.7086L18.6366 16.7628ZM20.8335 8.39529C20.8335 7.78968 20.8448 7.26306 20.6911 6.77178L18.7027 7.39343C18.7389 7.5093 18.7502 7.65544 18.7502 8.39529H20.8335ZM17.6773 6.4546C18.3038 6.84808 18.4216 6.93531 18.5005 7.02762L20.0845 5.67434C19.7501 5.28299 19.2982 5.01243 18.7853 4.69033L17.6773 6.4546ZM20.6911 6.77178C20.5652 6.36873 20.3587 5.99541 20.0845 5.67434L18.5005 7.02762C18.592 7.13463 18.6607 7.25908 18.7027 7.39343L20.6911 6.77178ZM2.08352 8.39529C2.08352 7.65544 2.09475 7.5093 2.13097 7.39343L0.142547 6.77178C-0.0110463 7.26306 0.000182729 7.78968 0.000182729 8.39529H2.08352ZM2.04841 4.69033C1.53554 5.01243 1.08361 5.28299 0.749245 5.67434L2.3332 7.02762C2.41207 6.93531 2.52985 6.84808 3.1564 6.4546L2.04841 4.69033ZM2.13097 7.39343C2.17297 7.25908 2.24177 7.13465 2.3332 7.02762L0.749245 5.67434C0.474943 5.99541 0.268558 6.36873 0.142547 6.77178L2.13097 7.39343ZM0.464037 8.82331L7.99004 13.8406L9.1457 12.1072L1.61966 7.08984L0.464037 8.82331ZM12.8436 13.8406L20.3697 8.82331L19.214 7.08984L11.688 12.1072L12.8436 13.8406ZM7.99004 13.8406C8.59018 14.2407 9.10352 14.6014 9.68862 14.7416L10.1741 12.7157C10.037 12.6828 9.88195 12.5981 9.1457 12.1072L7.99004 13.8406ZM11.688 12.1072C10.9517 12.5981 10.7967 12.6828 10.6596 12.7157L11.1451 14.7416C11.7302 14.6014 12.2435 14.2407 12.8436 13.8406L11.688 12.1072ZM9.68862 14.7416C10.1674 14.8564 10.6663 14.8564 11.1451 14.7416L10.6596 12.7157C10.5 12.7539 10.3337 12.7539 10.1741 12.7157L9.68862 14.7416ZM9.37518 4.83156V10.0399H11.4585V4.83156H9.37518ZM9.07008 7.65147L11.1534 5.56814L9.68029 4.09499L7.59694 6.17833L9.07008 7.65147ZM9.68029 5.56814L11.7636 7.65147L13.2367 6.17833L11.1534 4.09499L9.68029 5.56814Z" fill="#6B7CFF"/>
</svg>
