<svg width="17" height="16" viewBox="0 0 17 16" fill="none" xmlns="http://www.w3.org/2000/svg">
<path d="M16.2957 7.05865C16.6786 6.80332 16.7821 6.28594 16.5269 5.903C16.2716 5.52006 15.7541 5.41658 15.3712 5.67187L16.2957 7.05865ZM8.33348 3.86525L8.92273 3.27599C8.59731 2.95056 8.06965 2.95056 7.74423 3.27599L8.33348 3.86525ZM7.50015 8.0319C7.50015 8.49215 7.87323 8.86523 8.33348 8.86523C8.79373 8.86523 9.16681 8.49215 9.16681 8.0319H7.50015ZM6.07755 4.94267C5.75212 5.2681 5.75212 5.79573 6.07755 6.12117C6.403 6.44665 6.93065 6.44665 7.25606 6.12117L6.07755 4.94267ZM9.4109 6.12117C9.73631 6.44665 10.264 6.44665 10.5894 6.12117C10.9148 5.79573 10.9148 5.2681 10.5894 4.94267L9.4109 6.12117ZM15.0001 6.71623V12.0319H16.6668V6.71623H15.0001ZM13.1668 13.8652H3.50015V15.5319H13.1668V13.8652ZM1.66681 12.0319V6.71623H0.000146183V12.0319H1.66681ZM2.52512 5.16368L7.35848 2.12828L6.47206 0.716875L1.63873 3.75227L2.52512 5.16368ZM9.30848 2.12828L14.1418 5.16368L15.0282 3.75227L10.1949 0.716875L9.30848 2.12828ZM7.35848 2.12828C7.92481 1.77258 8.04315 1.71149 8.14815 1.68754L7.7774 0.062625C7.33048 0.164592 6.9344 0.426525 6.47206 0.716875L7.35848 2.12828ZM10.1949 0.716875C9.73256 0.426525 9.33648 0.164592 8.88956 0.062625L8.51881 1.68754C8.62381 1.71149 8.74215 1.77258 9.30848 2.12828L10.1949 0.716875ZM8.14815 1.68754C8.27015 1.65971 8.39681 1.65971 8.51881 1.68754L8.88956 0.062625C8.52356 -0.020875 8.1434 -0.020875 7.7774 0.062625L8.14815 1.68754ZM3.50015 13.8652C3.01969 13.8652 2.70945 13.8646 2.47335 13.8453C2.24695 13.8268 2.16302 13.7954 2.12182 13.7744L1.36517 15.2594C1.68049 15.4201 2.00817 15.4796 2.33762 15.5065C2.65735 15.5326 3.04719 15.5319 3.50015 15.5319V13.8652ZM0.000146183 12.0319C0.000146183 12.4849 -0.000503793 12.8747 0.0256212 13.1944C0.0525379 13.5239 0.111971 13.8516 0.27263 14.1669L1.75764 13.4102C1.73665 13.3691 1.70525 13.2851 1.68675 13.0587C1.66746 12.8226 1.66681 12.5124 1.66681 12.0319H0.000146183ZM2.12182 13.7744C1.96502 13.6946 1.83754 13.5671 1.75764 13.4102L0.27263 14.1669C0.512313 14.6373 0.894763 15.0197 1.36517 15.2594L2.12182 13.7744ZM15.0001 12.0319C15.0001 12.5124 14.9995 12.8226 14.9802 13.0587C14.9617 13.2851 14.9303 13.3691 14.9093 13.4102L16.3943 14.1669C16.555 13.8516 16.6144 13.5239 16.6413 13.1944C16.6675 12.8747 16.6668 12.4849 16.6668 12.0319H15.0001ZM13.1668 15.5319C13.6198 15.5319 14.0096 15.5326 14.3293 15.5065C14.6588 15.4796 14.9865 15.4201 15.3018 15.2594L14.5451 13.7744C14.5039 13.7954 14.42 13.8268 14.1936 13.8453C13.9575 13.8646 13.6473 13.8652 13.1668 13.8652V15.5319ZM14.9093 13.4102C14.8294 13.5671 14.702 13.6946 14.5451 13.7744L15.3018 15.2594C15.7722 15.0197 16.1546 14.6373 16.3943 14.1669L14.9093 13.4102ZM16.6668 6.71623C16.6668 6.23174 16.6758 5.81045 16.5529 5.41742L14.9621 5.91474C14.9911 6.00744 15.0001 6.12435 15.0001 6.71623H16.6668ZM14.1418 5.16368C14.6431 5.47847 14.7373 5.54825 14.8004 5.6221L16.0676 4.53947C15.8001 4.22639 15.4386 4.00994 15.0282 3.75227L14.1418 5.16368ZM16.5529 5.41742C16.4521 5.09498 16.287 4.79632 16.0676 4.53947L14.8004 5.6221C14.8736 5.70771 14.9286 5.80727 14.9621 5.91474L16.5529 5.41742ZM1.66681 6.71623C1.66681 6.12435 1.6758 6.00744 1.70478 5.91474L0.114038 5.41742C-0.00883706 5.81045 0.000146183 6.23174 0.000146183 6.71623H1.66681ZM1.63873 3.75227C1.22843 4.00994 0.866888 4.22639 0.599396 4.53947L1.86656 5.6221C1.92965 5.54825 2.02388 5.47847 2.52512 5.16368L1.63873 3.75227ZM1.70478 5.91474C1.73838 5.80727 1.79341 5.70772 1.86656 5.6221L0.599396 4.53947C0.379954 4.79632 0.214846 5.09498 0.114038 5.41742L1.70478 5.91474ZM0.37123 7.05865L6.39203 11.0725L7.31656 9.68573L1.29573 5.67187L0.37123 7.05865ZM10.2749 11.0725L16.2957 7.05865L15.3712 5.67187L9.3504 9.68573L10.2749 11.0725ZM6.39203 11.0725C6.87215 11.3926 7.28281 11.6811 7.7509 11.7933L8.13931 10.1726C8.02956 10.1462 7.90556 10.0785 7.31656 9.68573L6.39203 11.0725ZM9.3504 9.68573C8.7614 10.0785 8.63739 10.1462 8.52765 10.1726L8.91606 11.7933C9.38414 11.6811 9.79481 11.3926 10.2749 11.0725L9.3504 9.68573ZM7.7509 11.7933C8.1339 11.8851 8.53306 11.8851 8.91606 11.7933L8.52765 10.1726C8.39998 10.2031 8.26698 10.2031 8.13931 10.1726L7.7509 11.7933ZM7.50015 3.86525V8.0319H9.16681V3.86525H7.50015ZM7.25606 6.12117L8.92273 4.45451L7.74423 3.27599L6.07755 4.94267L7.25606 6.12117ZM7.74423 4.45451L9.4109 6.12117L10.5894 4.94267L8.92273 3.27599L7.74423 4.45451Z" fill="#F8FAFF"/>
</svg>
