<svg width="59" height="50" viewBox="0 0 59 50" fill="none" xmlns="http://www.w3.org/2000/svg">
<g filter="url(#filter0_d_3087_2030)">
<g clip-path="url(#clip0_3087_2030)">
<path d="M16.375 18.125C16.375 14.328 19.453 11.25 23.25 11.25C27.047 11.25 30.125 14.328 30.125 18.125C30.125 21.922 27.047 25 23.25 25C19.453 25 16.375 21.922 16.375 18.125Z" fill="#3A3FBB"/>
<path d="M32.6242 18.125C32.6242 20.0004 32.0735 21.7472 31.125 23.2125C32.3461 24.3231 33.9686 25 35.7493 25C39.5463 25 42.6243 21.922 42.6243 18.125C42.6243 14.328 39.5463 11.25 35.7493 11.25C33.9686 11.25 32.3461 11.9269 31.125 13.0375C32.0735 14.5028 32.6242 16.2496 32.6242 18.125Z" fill="#3A3FBB"/>
<path d="M14.5 32.5C14.5 29.7386 16.7386 27.5 19.5 27.5H27C29.7614 27.5 32 29.7386 32 32.5V37.5C32 38.1904 31.4404 38.75 30.75 38.75H15.75C15.0596 38.75 14.5 38.1904 14.5 37.5V32.5Z" fill="#3A3FBB"/>
<path d="M34.4996 32.5V38.75H43.2496C43.9398 38.75 44.4996 38.1904 44.4996 37.5V32.5C44.4996 29.7386 42.261 27.5 39.4996 27.5H32.5898C33.7773 28.8269 34.4996 30.5791 34.4996 32.5Z" fill="#3A3FBB"/>
</g>
</g>
<defs>
<filter id="filter0_d_3087_2030" x="-4" y="0" width="67" height="58" filterUnits="userSpaceOnUse" color-interpolation-filters="sRGB">
<feFlood flood-opacity="0" result="BackgroundImageFix"/>
<feColorMatrix in="SourceAlpha" type="matrix" values="0 0 0 0 0 0 0 0 0 0 0 0 0 0 0 0 0 0 127 0" result="hardAlpha"/>
<feOffset dy="4"/>
<feGaussianBlur stdDeviation="2"/>
<feComposite in2="hardAlpha" operator="out"/>
<feColorMatrix type="matrix" values="0 0 0 0 0 0 0 0 0 0 0 0 0 0 0 0 0 0 0.03 0"/>
<feBlend mode="normal" in2="BackgroundImageFix" result="effect1_dropShadow_3087_2030"/>
<feBlend mode="normal" in="SourceGraphic" in2="effect1_dropShadow_3087_2030" result="shape"/>
</filter>
<clipPath id="clip0_3087_2030">
<rect width="30" height="30" fill="white" transform="translate(14.5 10)"/>
</clipPath>
</defs>
</svg>
