<svg width="30" height="30" viewBox="0 0 30 30" fill="none" xmlns="http://www.w3.org/2000/svg">
<g clip-path="url(#clip0_7_755)">
<path d="M1.875 8.125C1.875 4.32804 4.95304 1.25 8.75 1.25C12.547 1.25 15.625 4.32804 15.625 8.125C15.625 11.922 12.547 15 8.75 15C4.95304 15 1.875 11.922 1.875 8.125Z" fill="#3AAAFF"/>
<path d="M18.1247 8.125C18.1247 10.0004 17.574 11.7472 16.6255 13.2125C17.8466 14.3231 19.4691 15 21.2497 15C25.0467 15 28.1247 11.922 28.1247 8.125C28.1247 4.32804 25.0467 1.25 21.2497 1.25C19.4691 1.25 17.8466 1.92691 16.6255 3.03745C17.574 4.50276 18.1247 6.24958 18.1247 8.125Z" fill="#3AAAFF"/>
<path d="M0 22.5C0 19.7386 2.23857 17.5 5 17.5H12.5C15.2614 17.5 17.5 19.7386 17.5 22.5V27.5C17.5 28.1904 16.9404 28.75 16.25 28.75H1.25C0.559645 28.75 0 28.1904 0 27.5V22.5Z" fill="#3AAAFF"/>
<path d="M20.0001 22.5V28.75H28.7501C29.4403 28.75 30.0001 28.1904 30.0001 27.5V22.5C30.0001 19.7386 27.7615 17.5 25.0001 17.5H18.0903C19.2778 18.8269 20.0001 20.5791 20.0001 22.5Z" fill="#3AAAFF"/>
</g>
<defs>
<clipPath id="clip0_7_755">
<rect width="30" height="30" fill="white"/>
</clipPath>
</defs>
</svg>
