<svg width="18" height="23" viewBox="0 0 18 23" fill="none" xmlns="http://www.w3.org/2000/svg">
<path d="M3.24357 22.433H14.3554C16.5213 22.433 17.599 21.3344 17.599 19.158V9.6575H10.0237C8.68442 9.6575 8.05661 9.01924 8.05661 7.67996V0H3.24357C1.08817 0 0 1.10911 0 3.28545V19.158C0 21.3449 1.08817 22.433 3.24357 22.433ZM10.0551 8.22406H17.4839C17.4107 7.79504 17.1073 7.37652 16.6155 6.86384L10.8398 0.993973C10.3585 0.491786 9.91906 0.188348 9.4796 0.115089V7.65906C9.4796 8.03571 9.67839 8.22406 10.0551 8.22406ZM4.77121 14.188C4.34219 14.188 4.03875 13.8846 4.03875 13.4766C4.03875 13.0685 4.34219 12.765 4.77121 12.765H12.8383C13.2568 12.765 13.5812 13.0685 13.5812 13.4766C13.5812 13.8846 13.2568 14.188 12.8383 14.188H4.77121ZM4.77121 18.1745C4.34219 18.1745 4.03875 17.8711 4.03875 17.463C4.03875 17.055 4.34219 16.7515 4.77121 16.7515H12.8383C13.2568 16.7515 13.5812 17.055 13.5812 17.463C13.5812 17.8711 13.2568 18.1745 12.8383 18.1745H4.77121Z" fill="#3A3FBB"/>
</svg>
