<svg width="17" height="19" viewBox="0 0 17 19" fill="none" xmlns="http://www.w3.org/2000/svg">
<path fill-rule="evenodd" clip-rule="evenodd" d="M5.83333 0C5.61232 0 5.40036 0.0878 5.24407 0.244075L0.244075 5.24407C0.0878001 5.40036 0 5.61232 0 5.83333V15.8333C0 17.2141 1.11929 18.3333 2.5 18.3333H3.33333C3.79357 18.3333 4.16667 17.9602 4.16667 17.5C4.16667 17.0397 3.79357 16.6667 3.33333 16.6667H2.5C2.03977 16.6667 1.66667 16.2936 1.66667 15.8333V6.66667H5.83333C6.29358 6.66667 6.66667 6.29357 6.66667 5.83333V1.66667H12.5C12.9602 1.66667 13.3333 2.03977 13.3333 2.5V5C13.3333 5.46023 13.7064 5.83333 14.1667 5.83333C14.6269 5.83333 15 5.46023 15 5V2.5C15 1.11929 13.8807 0 12.5 0H5.83333ZM5 5H2.84517L5 2.84517V5ZM15.9344 8.08925C14.9581 7.11294 13.3752 7.11294 12.3989 8.08925L10.9991 9.48908L6.91075 13.5774C6.80392 13.6842 6.72817 13.818 6.69158 13.9646L5.85825 17.2979C5.78722 17.5818 5.87042 17.8822 6.07742 18.0892C6.28442 18.2962 6.58483 18.3794 6.86875 18.3084L10.2021 17.4751C10.3487 17.4385 10.4824 17.3627 10.5892 17.2559L14.6297 13.2155L16.0774 11.7677C17.0537 10.7914 17.0537 9.20858 16.0774 8.23225L15.9344 8.08925ZM12.7557 10.0895L13.5774 9.26775C13.9028 8.94233 14.4305 8.94233 14.7559 9.26775L14.8989 9.41075C15.2243 9.73617 15.2243 10.2638 14.8989 10.5892L14.0518 11.4363L12.7557 10.0895ZM11.5769 11.2682L12.8731 12.6151L9.574 15.9142L7.812 16.3547L8.2525 14.5927L11.5769 11.2682Z" fill="#3A3FBB"/>
</svg>
