<svg width="16" height="16" viewBox="0 0 16 16" fill="none" xmlns="http://www.w3.org/2000/svg">
<path d="M11.3333 3.83333V3.16667C11.3333 2.23325 11.3333 1.76653 11.1517 1.41002C10.9919 1.09641 10.7369 0.841442 10.4233 0.681658C10.0668 0.5 9.60008 0.5 8.66667 0.5H7.33333C6.39992 0.5 5.9332 0.5 5.57668 0.681658C5.26307 0.841442 5.00811 1.09641 4.84832 1.41002C4.66667 1.76653 4.66667 2.23325 4.66667 3.16667V3.83333M0.522675 6.35525C0.823133 6.64325 4.07143 9.66667 8 9.66667C11.9286 9.66667 15.1768 6.64325 15.4773 6.35525M0.522675 6.35525C0.5 6.74417 0.5 7.22208 0.5 7.83333V11.5C0.5 12.9002 0.5 13.6002 0.772483 14.135C1.01217 14.6054 1.39462 14.9878 1.86503 15.2275C2.3998 15.5 3.09987 15.5 4.5 15.5H11.5C12.9002 15.5 13.6002 15.5 14.135 15.2275C14.6054 14.9878 14.9878 14.6054 15.2275 14.135C15.5 13.6002 15.5 12.9002 15.5 11.5V7.83333C15.5 7.22208 15.5 6.74417 15.4773 6.35525M0.522675 6.35525C0.551942 5.85342 0.618967 5.49966 0.772483 5.19836C1.01217 4.72795 1.39462 4.3455 1.86503 4.10582C2.3998 3.83333 3.09987 3.83333 4.5 3.83333H11.5C12.9002 3.83333 13.6002 3.83333 14.135 4.10582C14.6054 4.3455 14.9878 4.72795 15.2275 5.19836C15.381 5.49966 15.4481 5.85342 15.4773 6.35525" stroke="#3A3FBB" stroke-linecap="round" stroke-linejoin="round"/>
</svg>
