<svg width="67" height="58" viewBox="0 0 67 58" fill="none" xmlns="http://www.w3.org/2000/svg">
<g filter="url(#filter0_d_9_1425)">
<rect x="4" width="59" height="50" rx="10" fill="#33CCCC" fill-opacity="0.15" shape-rendering="crispEdges"/>
<rect x="4.5" y="0.5" width="58" height="49" rx="9.5" stroke="#33CCCC" shape-rendering="crispEdges"/>
<path d="M46 18.75H34.75V12.5C34.75 12.1685 34.6183 11.8505 34.3839 11.6161C34.1495 11.3817 33.8315 11.25 33.5 11.25H21C20.6685 11.25 20.3505 11.3817 20.1161 11.6161C19.8817 11.8505 19.75 12.1685 19.75 12.5V37.5C19.75 37.8315 19.8817 38.1495 20.1161 38.3839C20.3505 38.6183 20.6685 38.75 21 38.75H46C46.3315 38.75 46.6495 38.6183 46.8839 38.3839C47.1183 38.1495 47.25 37.8315 47.25 37.5V20C47.25 19.6685 47.1183 19.3505 46.8839 19.1161C46.6495 18.8817 46.3315 18.75 46 18.75ZM32.25 26.25H22.25V23.75H32.25V26.25ZM32.25 20V21.25H22.25V18.75H32.25V20ZM22.25 28.75H32.25V31.25H22.25V28.75ZM32.25 13.75V16.25H22.25V13.75H32.25ZM22.25 33.75H32.25V36.25H22.25V33.75ZM44.75 36.25H34.75V21.25H44.75V36.25ZM38.5 30H36V27.5H38.5V30ZM38.5 35H36V32.5H38.5V35ZM43.5 30H41V27.5H43.5V30ZM38.5 25H36V22.5H38.5V25ZM43.5 25H41V22.5H43.5V25ZM43.5 35H41V32.5H43.5V35Z" fill="#33CCCC"/>
</g>
<defs>
<filter id="filter0_d_9_1425" x="0" y="0" width="67" height="58" filterUnits="userSpaceOnUse" color-interpolation-filters="sRGB">
<feFlood flood-opacity="0" result="BackgroundImageFix"/>
<feColorMatrix in="SourceAlpha" type="matrix" values="0 0 0 0 0 0 0 0 0 0 0 0 0 0 0 0 0 0 127 0" result="hardAlpha"/>
<feOffset dy="4"/>
<feGaussianBlur stdDeviation="2"/>
<feComposite in2="hardAlpha" operator="out"/>
<feColorMatrix type="matrix" values="0 0 0 0 0 0 0 0 0 0 0 0 0 0 0 0 0 0 0.03 0"/>
<feBlend mode="normal" in2="BackgroundImageFix" result="effect1_dropShadow_9_1425"/>
<feBlend mode="normal" in="SourceGraphic" in2="effect1_dropShadow_9_1425" result="shape"/>
</filter>
</defs>
</svg>
