<svg width="67" height="58" viewBox="0 0 67 58" fill="none" xmlns="http://www.w3.org/2000/svg">
<g filter="url(#filter0_d_9_1407)">
<rect x="4" width="59" height="50" rx="10" fill="#6864F7" fill-opacity="0.15" shape-rendering="crispEdges"/>
<rect x="4.5" y="0.5" width="58" height="49" rx="9.5" stroke="#DCDDFD" shape-rendering="crispEdges"/>
<path d="M46.5236 37.606H46.5281L45.034 29.5812V29.5766C44.8181 28.5647 43.9283 27.8387 42.893 27.8387H24.1072C23.072 27.8387 22.1822 28.5647 21.9713 29.5766V29.5812L20.4766 37.6014V37.606C20.4488 37.7373 20.4346 37.8681 20.4346 38.004C20.4346 38.4587 20.5892 38.9034 20.8843 39.2643C21.264 39.7283 21.8308 40 22.4305 40H27.9533H39.0423H44.5701C45.1694 40 45.7413 39.7283 46.1159 39.2643C46.411 38.9034 46.5656 38.4587 46.5656 38.004C46.5656 37.8732 46.5514 37.7373 46.5236 37.606ZM45.3899 38.6742C45.1881 38.9176 44.8885 39.0631 44.5701 39.0631H37.9132C37.3226 38.7067 36.7045 38.4634 36.3157 38.3179C35.7955 38.1262 35.0366 37.5543 35.0366 37.203V36.2757C35.3367 35.943 35.5659 35.2637 35.7018 34.4955C36.0206 34.383 36.1986 34.2 36.4283 33.4085C36.6671 32.5654 36.0628 32.5933 36.0628 32.5933C36.55 30.982 35.9082 29.4641 34.8353 29.5766C34.0951 28.2788 31.6123 29.8717 30.8347 29.7638C30.8347 30.2089 31.0222 30.5415 31.0222 30.5415C30.7505 31.0521 30.858 32.0782 30.933 32.5933C30.8863 32.5933 30.3429 32.5979 30.5725 33.4085C30.8017 34.2 30.9801 34.383 31.2986 34.4955C31.4344 35.2637 31.6641 35.943 31.9637 36.2757V37.203C31.9637 37.5543 31.158 38.1541 30.6846 38.3179C30.2912 38.4588 29.6635 38.7021 29.0688 39.0631H22.4305C22.1117 39.0631 21.812 38.9176 21.6107 38.6742C21.4562 38.4821 21.3715 38.2433 21.3715 38.0041C21.3715 37.9341 21.3811 37.859 21.3948 37.7885V37.784L22.8894 29.7684V29.7593C23.0111 29.1828 23.5216 28.7757 24.1072 28.7757H42.8929C43.4785 28.7757 43.9891 29.1828 44.1107 29.7593L45.6053 37.784V37.7885C45.6195 37.859 45.6287 37.9341 45.6287 38.0041C45.6287 38.2432 45.5445 38.4821 45.3899 38.6742Z" fill="#6864F7"/>
<path d="M36.158 19.0632C36.158 19.3505 36.2778 19.5655 36.2778 19.5655C36.1022 19.8977 36.1708 20.5583 36.2193 20.8926C36.1914 20.8922 35.8392 20.8959 35.9892 21.4192C36.1347 21.9307 36.2509 22.0478 36.4563 22.1205C36.5437 22.6179 36.691 23.0556 36.8855 23.272C36.8855 23.531 36.8855 23.7204 36.8855 23.8713L36.8781 23.9194L37.5392 24.2373V24.7478H38.2195V24.2368L38.8796 23.9194L38.8723 23.8713C38.8723 23.7204 38.8723 23.531 38.8723 23.272C39.0667 23.0556 39.2149 22.6179 39.3014 22.1205C39.5059 22.0478 39.6239 21.9307 39.7694 21.4192C39.925 20.8739 39.5357 20.8926 39.5357 20.8926C39.8509 19.851 39.4359 18.872 38.7424 18.9438C38.2643 18.1066 36.6608 19.1346 36.158 19.0632Z" fill="#6864F7"/>
<path d="M38.3054 26.2101L38.219 25.1107H37.5387L37.4518 26.2101L36.3442 24.5055C35.8415 24.5055 34.4447 25.7453 34.3633 27.2436H41.3948C41.3129 25.7453 39.9167 24.5055 39.4135 24.5055L38.3054 26.2101Z" fill="#6864F7"/>
<path d="M27.6994 22.1206C27.7867 22.6179 27.935 23.0557 28.1285 23.2721C28.1285 23.531 28.1285 23.7204 28.1285 23.8714L28.1212 23.9194L28.7822 24.2369V24.7479H29.4626V24.2369L30.1222 23.9194L30.1154 23.8714C30.1154 23.7204 30.1154 23.531 30.1154 23.2721C30.3102 23.0557 30.4571 22.6179 30.545 22.1206C30.7495 22.0479 30.867 21.9307 31.0125 21.4193C31.169 20.8739 30.7797 20.8927 30.7797 20.8927C31.094 19.851 30.679 18.872 29.985 18.9438C29.5074 18.1066 27.9039 19.1346 27.4021 19.0632C27.4021 19.3505 27.5215 19.5655 27.5215 19.5655C27.3463 19.8976 27.4139 20.5582 27.4634 20.8926C27.4346 20.8922 27.0823 20.8959 27.2324 21.4192C27.3778 21.9307 27.4949 22.0479 27.6994 22.1206Z" fill="#6864F7"/>
<path d="M30.6566 24.5055L29.549 26.21L29.4621 25.1107H28.7818L28.6954 26.21L27.5873 24.5055C27.0846 24.5055 25.6878 25.7452 25.6064 27.2435H32.6375C32.5552 25.7452 31.1603 24.5055 30.6566 24.5055Z" fill="#6864F7"/>
<path d="M30.98 16.881L30.2682 18.6593L30.782 18.5956C32.5575 18.3737 34.2574 17.709 35.0649 17.36C35.8321 17.0864 36.4937 16.6179 36.9707 16.0104C37.4502 15.3983 37.7416 14.6375 37.7412 13.8154C37.7416 13.2774 37.6172 12.7636 37.3962 12.303C37.0645 11.6108 36.5196 11.0366 35.8458 10.6341C35.1714 10.2324 34.3658 10.0009 33.5003 10C32.3488 10.0009 31.2998 10.4117 30.5285 11.092C30.1428 11.4324 29.8262 11.8414 29.6062 12.303C29.3852 12.7636 29.2607 13.2774 29.2607 13.8154C29.2607 14.5007 29.4634 15.1458 29.8098 15.6952C30.1062 16.1651 30.507 16.5667 30.98 16.881ZM30.1277 12.6145C30.3949 12.0555 30.85 11.5664 31.4347 11.2178C32.0199 10.8688 32.7317 10.6615 33.5002 10.6615C34.5268 10.6615 35.45 11.0303 36.1065 11.6103C36.4346 11.9004 36.6962 12.2416 36.8738 12.6145C37.0521 12.9878 37.1492 13.3909 37.1492 13.8154C37.1492 14.4619 36.9245 15.0635 36.5247 15.575C36.1257 16.085 35.5502 16.4972 34.8686 16.7369L34.8594 16.7397L34.8503 16.7438C34.1517 17.0471 32.7385 17.5979 31.2366 17.8592L31.7458 16.5892L31.4955 16.446C30.9914 16.1577 30.5783 15.7652 30.2942 15.3146C30.0096 14.863 29.8531 14.3557 29.8527 13.8154C29.8528 13.3909 29.9493 12.9878 30.1277 12.6145Z" fill="#6864F7"/>
<path d="M31.8284 14.4225C32.0823 14.4225 32.2891 14.1924 32.2891 13.9083C32.2891 13.6251 32.0823 13.3945 31.8284 13.3945C31.5741 13.3945 31.3682 13.6251 31.3682 13.9083C31.3681 14.1924 31.574 14.4225 31.8284 14.4225Z" fill="#6864F7"/>
<path d="M33.6042 14.4225C33.8585 14.4225 34.0649 14.1924 34.0649 13.9083C34.0649 13.6251 33.8585 13.3945 33.6042 13.3945C33.3498 13.3945 33.1436 13.6251 33.1436 13.9083C33.1436 14.1924 33.3499 14.4225 33.6042 14.4225Z" fill="#6864F7"/>
<path d="M35.3806 14.4225C35.6349 14.4225 35.8412 14.1924 35.8412 13.9083C35.8412 13.6251 35.6349 13.3945 35.3806 13.3945C35.1262 13.3945 34.9199 13.6251 34.9199 13.9083C34.9199 14.1924 35.1262 14.4225 35.3806 14.4225Z" fill="#6864F7"/>
</g>
<defs>
<filter id="filter0_d_9_1407" x="0" y="0" width="67" height="58" filterUnits="userSpaceOnUse" color-interpolation-filters="sRGB">
<feFlood flood-opacity="0" result="BackgroundImageFix"/>
<feColorMatrix in="SourceAlpha" type="matrix" values="0 0 0 0 0 0 0 0 0 0 0 0 0 0 0 0 0 0 127 0" result="hardAlpha"/>
<feOffset dy="4"/>
<feGaussianBlur stdDeviation="2"/>
<feComposite in2="hardAlpha" operator="out"/>
<feColorMatrix type="matrix" values="0 0 0 0 0 0 0 0 0 0 0 0 0 0 0 0 0 0 0.03 0"/>
<feBlend mode="normal" in2="BackgroundImageFix" result="effect1_dropShadow_9_1407"/>
<feBlend mode="normal" in="SourceGraphic" in2="effect1_dropShadow_9_1407" result="shape"/>
</filter>
</defs>
</svg>
