<svg width="17" height="12" viewBox="0 0 17 12" fill="none" xmlns="http://www.w3.org/2000/svg">
<path d="M0.261621 5.27047C0.0937564 5.4451 0 5.67793 0 5.92015C0 6.16238 0.0937564 6.39521 0.261621 6.56984L5.05506 11.5508C5.64006 12.1592 6.66756 11.7448 6.66756 10.9011V8.02953C6.66756 7.96737 6.69225 7.90776 6.73621 7.8638C6.78016 7.81985 6.83977 7.79515 6.90193 7.79515H16.0426C16.2912 7.79515 16.5297 7.69638 16.7055 7.52057C16.8813 7.34475 16.9801 7.1063 16.9801 6.85765V4.98265C16.9801 4.73401 16.8813 4.49556 16.7055 4.31974C16.5297 4.14393 16.2912 4.04515 16.0426 4.04515H6.90193C6.83977 4.04515 6.78016 4.02046 6.73621 3.97651C6.69225 3.93255 6.66756 3.87294 6.66756 3.81078V0.939218C6.66756 0.0954676 5.64006 -0.318907 5.05506 0.28953L0.261621 5.27047Z" fill="white"/>
</svg>
