<svg width="20" height="20" viewBox="0 0 20 20" fill="none" xmlns="http://www.w3.org/2000/svg">
<path d="M9.99805 3.57422C6.44727 3.57422 3.57031 6.45312 3.57031 10.002C3.57031 13.5508 6.44922 16.4297 9.99805 16.4297C13.5488 16.4297 16.4258 13.5508 16.4258 10.002C16.4258 6.45312 13.5469 3.57422 9.99805 3.57422ZM9.99805 15.0039C7.24023 15.0039 4.99805 12.7617 4.99805 10.0039C4.99805 7.24609 7.24023 5.00391 9.99805 5.00391C12.7559 5.00391 14.998 7.24609 14.998 10.0039C14.998 12.7617 12.7539 15.0039 9.99805 15.0039Z" fill="#3A3FBB"/>
<path d="M10.7148 7.14258H9.28516V10.2949L11.6387 12.6484L12.6484 11.6387L10.7148 9.70508V7.14258Z" fill="#3A3FBB"/>
</svg>
