<svg width="13" height="10" viewBox="0 0 13 10" fill="none" xmlns="http://www.w3.org/2000/svg">
<path d="M0.19933 4.01559C0.0714335 4.14865 0 4.32604 0 4.51059C0 4.69515 0.0714335 4.87254 0.19933 5.00559L3.85147 8.80059C4.29719 9.26417 5.08004 8.94845 5.08004 8.30559V6.11774C5.08004 6.07038 5.09886 6.02496 5.13235 5.99147C5.16583 5.95798 5.21126 5.93917 5.25862 5.93917H12.2229C12.4123 5.93917 12.594 5.86391 12.728 5.72996C12.8619 5.596 12.9372 5.41432 12.9372 5.22488V3.79631C12.9372 3.60687 12.8619 3.42519 12.728 3.29123C12.594 3.15728 12.4123 3.08202 12.2229 3.08202H5.25862C5.21126 3.08202 5.16583 3.06321 5.13235 3.02972C5.09886 2.99623 5.08004 2.95081 5.08004 2.90345V0.715594C5.08004 0.0727372 4.29719 -0.242977 3.85147 0.220594L0.19933 4.01559Z" fill="#5D6FDF"/>
</svg>
