<svg width="70" height="70" viewBox="0 0 70 70" fill="none" xmlns="http://www.w3.org/2000/svg">
<rect width="70" height="70" rx="5" fill="#F07000"/>
<g clip-path="url(#clip0_849_913)">
<path d="M17.5 25.8333C17.5 20.7707 21.604 16.6666 26.6667 16.6666C31.7293 16.6666 35.8333 20.7707 35.8333 25.8333C35.8333 30.8959 31.7293 35 26.6667 35C21.604 35 17.5 30.8959 17.5 25.8333Z" fill="#EDF5FF"/>
<path d="M39.1665 25.8333C39.1665 28.3339 38.4321 30.6629 37.1675 32.6166C38.7956 34.0975 40.959 35 43.3331 35C48.3958 35 52.4998 30.8959 52.4998 25.8333C52.4998 20.7707 48.3958 16.6666 43.3331 16.6666C40.959 16.6666 38.7956 17.5692 37.1675 19.0499C38.4321 21.0036 39.1665 23.3327 39.1665 25.8333Z" fill="#EDF5FF"/>
<path d="M15 45C15 41.3182 17.9848 38.3334 21.6667 38.3334H31.6667C35.3485 38.3334 38.3333 41.3182 38.3333 45V51.6667C38.3333 52.5872 37.5872 53.3334 36.6667 53.3334H16.6667C15.7462 53.3334 15 52.5872 15 51.6667V45Z" fill="#EDF5FF"/>
<path d="M41.6667 45V53.3334H53.3334C54.2537 53.3334 55 52.5872 55 51.6667V45C55 41.3182 52.0152 38.3334 48.3334 38.3334H39.1204C40.7037 40.1025 41.6667 42.4389 41.6667 45Z" fill="#EDF5FF"/>
</g>
<defs>
<clipPath id="clip0_849_913">
<rect width="40" height="40" fill="white" transform="translate(15 15)"/>
</clipPath>
</defs>
</svg>
