<svg width="100" height="100" viewBox="0 0 100 100" fill="none" xmlns="http://www.w3.org/2000/svg">
<rect x="1" y="1" width="98" height="98" rx="49" fill="#EFF6FF"/>
<rect x="1" y="1" width="98" height="98" rx="49" stroke="#6B7CFF" stroke-width="2"/>
<path d="M58.8889 70H59.3333C63.0671 70 64.9338 70 66.36 69.2733C67.6144 68.6342 68.6342 67.6144 69.2733 66.36C70 64.9338 70 63.0671 70 59.3333V40.6667C70 36.933 70 35.0661 69.2733 33.6401C68.6342 32.3856 67.6144 31.3658 66.36 30.7266C64.9338 30 63.0671 30 59.3333 30H40.6667C36.933 30 35.0661 30 33.6401 30.7266C32.3856 31.3658 31.3658 32.3856 30.7266 33.6401C30 35.0661 30 36.933 30 40.6667V41.1111M48.8889 51.1111L61.1111 38.8889M61.1111 38.8889H50M61.1111 38.8889V50M37.1111 70H42.8889C45.378 70 46.6227 70 47.5733 69.5156C48.4096 69.0896 49.0896 68.4096 49.5156 67.5733C50 66.6227 50 65.378 50 62.8889V57.1111C50 54.622 50 53.3773 49.5156 52.4267C49.0896 51.5904 48.4096 50.9104 47.5733 50.4844C46.6227 50 45.378 50 42.8889 50H37.1111C34.622 50 33.3774 50 32.4267 50.4844C31.5904 50.9104 30.9105 51.5904 30.4844 52.4267C30 53.3773 30 54.622 30 57.1111V62.8889C30 65.378 30 66.6227 30.4844 67.5733C30.9105 68.4096 31.5904 69.0896 32.4267 69.5156C33.3774 70 34.622 70 37.1111 70Z" stroke="#6B7CFF" stroke-width="3" stroke-linecap="round" stroke-linejoin="round"/>
</svg>
