<svg width="100" height="100" viewBox="0 0 100 100" fill="none" xmlns="http://www.w3.org/2000/svg">
<rect x="1" y="1" width="98" height="98" rx="49" fill="#EFF6FF"/>
<rect x="1" y="1" width="98" height="98" rx="49" stroke="#6B7CFF" stroke-width="2"/>
<path d="M58.4852 41.6C63.1716 46.2391 63.1716 53.7608 58.4852 58.4001M41.5147 58.3999C36.8284 53.7608 36.8284 46.2391 41.5147 41.5999M35.8579 64C28.0474 56.2679 28.0474 43.732 35.8579 36M64.1422 36.0001C71.9526 43.7321 71.9526 56.2681 64.1422 64M54 49.9999C54 52.1869 52.2092 53.9597 50 53.9597C47.7908 53.9597 46 52.1869 46 49.9999C46 47.8131 47.7908 46.0401 50 46.0401C52.2092 46.0401 54 47.8131 54 49.9999Z" stroke="#6B7CFF" stroke-width="3" stroke-linecap="round" stroke-linejoin="round"/>
</svg>
