<svg width="70" height="70" viewBox="0 0 70 70" fill="none" xmlns="http://www.w3.org/2000/svg">
<rect width="70" height="70" rx="5" fill="#3A3FBB"/>
<path d="M51.6667 26.6666H36.6667V18.3333C36.6667 17.8913 36.4912 17.4673 36.1786 17.1548C35.866 16.8422 35.4421 16.6666 35.0001 16.6666H18.3334C17.8914 16.6666 17.4675 16.8422 17.1549 17.1548C16.8423 17.4673 16.6667 17.8913 16.6667 18.3333V51.6666C16.6667 52.1087 16.8423 52.5326 17.1549 52.8451C17.4675 53.1577 17.8914 53.3333 18.3334 53.3333H51.6667C52.1088 53.3333 52.5327 53.1577 52.8453 52.8451C53.1578 52.5326 53.3334 52.1087 53.3334 51.6666V28.3333C53.3334 27.8913 53.1578 27.4673 52.8453 27.1548C52.5327 26.8422 52.1088 26.6666 51.6667 26.6666ZM33.3334 36.6666H20.0001V33.3333H33.3334V36.6666ZM33.3334 28.3333V30H20.0001V26.6666H33.3334V28.3333ZM20.0001 40H33.3334V43.3333H20.0001V40ZM33.3334 20V23.3333H20.0001V20H33.3334ZM20.0001 46.6666H33.3334V50H20.0001V46.6666ZM50.0001 50H36.6667V30H50.0001V50ZM41.6667 41.6666H38.3334V38.3333H41.6667V41.6666ZM41.6667 48.3333H38.3334V45H41.6667V48.3333ZM48.3334 41.6666H45.0001V38.3333H48.3334V41.6666ZM41.6667 35H38.3334V31.6666H41.6667V35ZM48.3334 35H45.0001V31.6666H48.3334V35ZM48.3334 48.3333H45.0001V45H48.3334V48.3333Z" fill="#E0F9FF"/>
</svg>
