<svg width="100" height="100" viewBox="0 0 100 100" fill="none" xmlns="http://www.w3.org/2000/svg">
<rect x="1" y="1" width="98" height="98" rx="49" fill="#EFF6FF"/>
<rect x="1" y="1" width="98" height="98" rx="49" stroke="#6B7CFF" stroke-width="2"/>
<path d="M69.4669 38.5191C69.3336 38.0532 68.7332 37.9201 68.334 38.2529L61.6035 44.975C61.0697 45.5075 60.2707 45.5075 59.7369 44.975L55.0056 40.2496C54.4725 39.7171 54.4725 38.9185 55.0056 38.386L61.8027 31.5973C62.1359 31.2646 62.0027 30.6656 61.5362 30.4659C60.404 30.1997 59.2045 30 58.005 30C50.9413 30 45.277 36.1231 46.0766 43.3111C46.2099 44.4426 46.4765 45.4409 46.8763 46.4393L31.3494 62.0133C29.5502 63.8103 29.5502 66.8053 31.3494 68.6023C32.2824 69.5341 33.4819 70 34.6814 70C35.8809 70 37.0804 69.5348 38.0133 68.6023L53.5402 53.0948C54.5398 53.4942 55.6067 53.7604 56.6722 53.8935C63.9359 54.6922 70 49.0349 70 41.98C70 40.782 69.8001 39.584 69.4669 38.5191Z" fill="#6B7CFF"/>
</svg>
