<svg width="23" height="23" viewBox="0 0 23 23" fill="none" xmlns="http://www.w3.org/2000/svg">
<rect width="23" height="23" rx="11.5" fill="#3A3FBB"/>
<path d="M7.71875 9.56534C7.6733 9.16193 7.4858 8.84943 7.15625 8.62784C6.8267 8.40341 6.41193 8.29119 5.91193 8.29119C5.55398 8.29119 5.24432 8.34801 4.98295 8.46165C4.72159 8.57244 4.51847 8.72585 4.37358 8.92188C4.23153 9.11506 4.16051 9.33523 4.16051 9.58239C4.16051 9.78977 4.20881 9.96875 4.3054 10.1193C4.40483 10.2699 4.53409 10.3963 4.69318 10.4986C4.85511 10.598 5.02841 10.6818 5.21307 10.75C5.39773 10.8153 5.57528 10.8693 5.74574 10.9119L6.59801 11.1335C6.87642 11.2017 7.16193 11.294 7.45455 11.4105C7.74716 11.527 8.01847 11.6804 8.26847 11.8707C8.51847 12.0611 8.72017 12.2969 8.87358 12.5781C9.02983 12.8594 9.10795 13.196 9.10795 13.5881C9.10795 14.0824 8.98011 14.5213 8.72443 14.9048C8.47159 15.2884 8.10369 15.5909 7.62074 15.8125C7.14063 16.0341 6.55966 16.1449 5.87784 16.1449C5.22443 16.1449 4.65909 16.0412 4.18182 15.8338C3.70455 15.6264 3.33097 15.3324 3.06108 14.9517C2.79119 14.5682 2.64205 14.1136 2.61364 13.5881H3.93466C3.96023 13.9034 4.0625 14.1662 4.24148 14.3764C4.4233 14.5838 4.65483 14.7386 4.93608 14.8409C5.22017 14.9403 5.53125 14.9901 5.86932 14.9901C6.24148 14.9901 6.57244 14.9318 6.86222 14.8153C7.15483 14.696 7.38494 14.5312 7.55256 14.321C7.72017 14.108 7.80398 13.8594 7.80398 13.5753C7.80398 13.3168 7.73011 13.1051 7.58239 12.9403C7.4375 12.7756 7.24006 12.6392 6.99006 12.5312C6.7429 12.4233 6.46307 12.3281 6.15057 12.2457L5.11932 11.9645C4.42045 11.7741 3.86648 11.4943 3.45739 11.125C3.05114 10.7557 2.84801 10.267 2.84801 9.65909C2.84801 9.15625 2.98438 8.71733 3.2571 8.34233C3.52983 7.96733 3.89915 7.67614 4.36506 7.46875C4.83097 7.25852 5.35653 7.15341 5.94176 7.15341C6.53267 7.15341 7.05398 7.2571 7.50568 7.46449C7.96023 7.67188 8.31818 7.95739 8.57955 8.32102C8.84091 8.68182 8.97727 9.09659 8.98864 9.56534H7.71875ZM10.6815 7.27273H12.2795L15.0579 14.0568H15.1602L17.9386 7.27273H19.5366V16H18.2837V9.68466H18.2028L15.6289 15.9872H14.5891L12.0153 9.6804H11.9343V16H10.6815V7.27273Z" fill="#FEFEFE"/>
</svg>
