<svg width="16" height="15" viewBox="0 0 16 15" fill="none" xmlns="http://www.w3.org/2000/svg">
<path d="M5.125 3.31292L13.25 3.31337M5.125 7.06294L13.25 7.06344M5.125 10.8129L13.25 10.8134M2.3125 3.3125H2.31875M2.3125 7.0625H2.31875M2.3125 10.8125H2.31875M2.625 3.3125C2.625 3.48509 2.48509 3.625 2.3125 3.625C2.13991 3.625 2 3.48509 2 3.3125C2 3.13991 2.13991 3 2.3125 3C2.48509 3 2.625 3.13991 2.625 3.3125ZM2.625 7.0625C2.625 7.23506 2.48509 7.375 2.3125 7.375C2.13991 7.375 2 7.23506 2 7.0625C2 6.88994 2.13991 6.75 2.3125 6.75C2.48509 6.75 2.625 6.88994 2.625 7.0625ZM2.625 10.8125C2.625 10.9851 2.48509 11.125 2.3125 11.125C2.13991 11.125 2 10.9851 2 10.8125C2 10.6399 2.13991 10.5 2.3125 10.5C2.48509 10.5 2.625 10.6399 2.625 10.8125Z" stroke="#3A3FBB" stroke-linecap="round" stroke-linejoin="round"/>
</svg>
