<svg width="20" height="20" viewBox="0 0 20 20" fill="none" xmlns="http://www.w3.org/2000/svg">
<path d="M15.8333 0.833333C15.8333 0.373096 16.2063 0 16.6666 0C17.1268 0 17.4999 0.373096 17.4999 0.833333V1.32152L18.559 0.262412C18.8844 -0.0630254 19.4121 -0.0630245 19.7375 0.262412C20.063 0.587849 20.063 1.11548 19.7375 1.44093L18.6784 2.5H19.1666C19.6268 2.5 19.9999 2.8731 19.9999 3.33333C19.9999 3.79357 19.6268 4.16667 19.1666 4.16667H17.0118L10.5847 10.5937C10.2593 10.9192 9.73159 10.9192 9.40617 10.5937C9.08076 10.2683 9.08076 9.74067 9.40617 9.41525L15.8333 2.98818V0.833333Z" fill="#E75A03"/>
<path d="M14.4943 3.15724C14.8623 2.78926 14.8071 2.1753 14.3492 1.92807C13.0552 1.22952 11.5742 0.833008 10.0007 0.833008C4.93804 0.833008 0.833984 4.93707 0.833984 9.99967C0.833984 15.0623 4.93804 19.1663 10.0007 19.1663C15.0632 19.1663 19.1673 15.0623 19.1673 9.99967C19.1673 8.42917 18.7724 6.95095 18.0764 5.65886C17.8295 5.20043 17.2151 5.14487 16.8469 5.51306L16.822 5.53799C16.5468 5.81313 16.5033 6.23996 16.6806 6.58632C17.2049 7.61017 17.5006 8.77042 17.5006 9.99967C17.5006 14.1418 14.1428 17.4997 10.0007 17.4997C5.85852 17.4997 2.50065 14.1418 2.50065 9.99967C2.50065 5.85754 5.85852 2.49967 10.0007 2.49967C11.2325 2.49967 12.395 2.79666 13.4204 3.32293C13.7669 3.50075 14.1941 3.45742 14.4696 3.18204L14.4943 3.15724Z" fill="#E75A03"/>
<path d="M11.9909 5.65998C12.3848 5.26618 12.2857 4.60305 11.7545 4.43567C11.2006 4.26112 10.6109 4.16699 9.99935 4.16699C6.77769 4.16699 4.16602 6.77867 4.16602 10.0003C4.16602 13.222 6.77769 15.8337 9.99935 15.8337C13.221 15.8337 15.8327 13.222 15.8327 10.0003C15.8327 9.39216 15.7396 8.80566 15.5669 8.25441C15.4003 7.72248 14.7365 7.6228 14.3424 8.01695L14.2655 8.09386C14.0312 8.32813 13.9656 8.67733 14.0449 8.99899C14.124 9.31974 14.166 9.65516 14.166 10.0003C14.166 12.3015 12.3005 14.167 9.99935 14.167C7.69817 14.167 5.83268 12.3015 5.83268 10.0003C5.83268 7.69914 7.69817 5.83366 9.99935 5.83366C10.347 5.83366 10.6848 5.87624 11.0077 5.95649C11.3298 6.03655 11.6798 5.97113 11.9145 5.73642L11.9909 5.65998Z" fill="#E75A03"/>
<path d="M9.23167 7.62657C9.57283 7.51281 9.7445 7.90718 9.49017 8.16151L8.81892 8.83286C8.16878 9.48294 8.16878 10.5369 8.81892 11.187C9.469 11.8371 10.523 11.8371 11.1731 11.187L11.8359 10.5242C12.0908 10.2694 12.4852 10.4422 12.3691 10.7835C12.0342 11.7679 11.0946 12.5004 10 12.5004C8.61925 12.5004 7.5 11.3812 7.5 10.0004C7.5 8.90011 8.24023 7.95712 9.23167 7.62657Z" fill="#E75A03"/>
</svg>
