<svg width="25" height="24" viewBox="0 0 25 24" fill="none" xmlns="http://www.w3.org/2000/svg">
<path d="M3.45146 18.5008H7.38862C7.66489 18.5008 7.88892 18.2932 7.88892 18.0371V11.0195C7.88892 10.7633 7.66489 10.5557 7.38862 10.5557H3.45146C3.1752 10.5557 2.95117 10.7633 2.95117 11.0195V18.0371C2.95117 18.2932 3.1752 18.5008 3.45146 18.5008Z" fill="#3A3FBB"/>
<path d="M10.5316 18.5006H14.4687C14.745 18.5006 14.9691 18.293 14.9691 18.0369V6.08682C14.9691 5.83066 14.745 5.62305 14.4687 5.62305H10.5316C10.2553 5.62305 10.0312 5.83066 10.0312 6.08682V18.0368C10.0312 18.293 10.2553 18.5006 10.5316 18.5006Z" fill="#3A3FBB"/>
<path d="M17.6098 18.5003H21.5468C21.8232 18.5003 22.0472 18.2927 22.0472 18.0366V0.463818C22.0472 0.207666 21.8232 0 21.5468 0H17.6098C17.3334 0 17.1094 0.207666 17.1094 0.463818V18.0366C17.1094 18.2927 17.3334 18.5003 17.6098 18.5003Z" fill="#3A3FBB"/>
<path d="M24.1907 20.6133H0.809277H0V23.3917H0.809277H24.1907H25V20.6133H24.1907Z" fill="#3A3FBB"/>
</svg>
