<svg width="20" height="20" viewBox="0 0 20 20" fill="none" xmlns="http://www.w3.org/2000/svg">
<g clip-path="url(#clip0_9_1777)">
<path d="M14.729 12.3191C14.42 12.3191 14.1695 12.5695 14.1695 12.8785V16.5467L12.4778 15.4076C12.2889 15.2804 12.0418 15.2804 11.8528 15.4076L10.1611 16.5467V14.4649C10.1611 14.1559 9.91065 13.9055 9.60167 13.9055C9.29268 13.9055 9.04221 14.1559 9.04221 14.4649V18.3893L7.35046 17.2502C7.16163 17.1231 6.91448 17.123 6.72554 17.2502L5.03378 18.3893V11.3632C6.22058 12.5022 7.83073 13.2033 9.60167 13.2033C13.2418 13.2033 16.2033 10.2417 16.2033 6.60163C16.2033 2.96152 13.2417 0 9.60163 0C5.96152 0 3 2.96152 3 6.60163C3 7.82331 3.33398 8.9683 3.91484 9.95084V19.4405C3.91484 19.6473 4.0289 19.8373 4.21148 19.9345C4.39398 20.0315 4.61519 20.0202 4.78679 19.9046L7.038 18.3888L9.28909 19.9046C9.38319 19.968 9.49221 20 9.60159 20C9.69167 20 9.78202 19.9783 9.86444 19.9345C10.047 19.8373 10.1611 19.6474 10.1611 19.4405V17.8957L12.1653 16.5462L14.4165 18.062C14.5106 18.1253 14.6196 18.1574 14.729 18.1574C14.8191 18.1574 14.9094 18.1357 14.9919 18.0918C15.1744 17.9946 15.2885 17.8047 15.2885 17.5979V12.8786C15.2884 12.5695 15.0379 12.3191 14.729 12.3191ZM9.60163 1.1189C12.6248 1.1189 15.0844 3.57839 15.0844 6.60163C15.0844 9.62486 12.6249 12.0844 9.60163 12.0844C6.57839 12.0844 4.1189 9.62486 4.1189 6.60163C4.1189 3.57839 6.57839 1.1189 9.60163 1.1189Z" fill="#01C32B"/>
<path d="M7.67035 7.49633L7.40605 9.03726C7.37004 9.24711 7.45629 9.45926 7.62859 9.58449C7.80089 9.70965 8.02929 9.72621 8.21777 9.62707L9.60163 8.89953L10.9855 9.62707C11.0673 9.67008 11.1567 9.69129 11.2458 9.69129C11.3617 9.69129 11.4772 9.65527 11.5747 9.58441C11.747 9.45926 11.8333 9.24711 11.7972 9.03719L11.5329 7.49625L12.6525 6.40493C12.805 6.25629 12.8599 6.03395 12.7941 5.83141C12.7283 5.62887 12.5532 5.4813 12.3425 5.45063L10.7953 5.22579L10.1034 3.8238C10.0091 3.63286 9.8146 3.51196 9.60167 3.51196C9.38874 3.51196 9.19421 3.63286 9.09999 3.8238L8.40804 5.22579L6.86086 5.45063C6.65012 5.48122 6.47504 5.62887 6.40922 5.83141C6.34344 6.03395 6.39832 6.25625 6.55082 6.40493L7.67035 7.49633ZM8.85999 6.2909C9.04222 6.26446 9.19976 6.14997 9.2812 5.98489L9.60167 5.33563L9.92214 5.98489C10.0037 6.14997 10.1611 6.26446 10.3434 6.2909L11.0598 6.395L10.5414 6.90035C10.4095 7.02887 10.3493 7.21403 10.3805 7.39555L10.5029 8.1091L9.86206 7.77227C9.78054 7.72942 9.69116 7.70797 9.60175 7.70797C9.51234 7.70797 9.42288 7.72942 9.34144 7.77227L8.70058 8.1091L8.823 7.39555C8.85417 7.21406 8.79398 7.02887 8.6621 6.90035L8.14367 6.395L8.85999 6.2909Z" fill="#01C32B"/>
<path d="M10.0002 0.559448C6.66316 0.559448 3.95801 3.2646 3.95801 6.60162C3.95801 9.93865 6.66316 12.6438 10.0002 12.6438C13.3372 12.6438 16.0424 9.93865 16.0424 6.60162C16.0424 3.2646 13.3371 0.559448 10.0002 0.559448ZM11.6444 9.13177L10.0001 8.26736L8.35593 9.13177L8.66995 7.30096L7.3398 6.00436L9.17808 5.73721L10.0002 4.07147L10.8223 5.73721L12.6606 6.00436L11.3303 7.30096L11.6444 9.13177Z" fill="#01C32B" fill-opacity="0.4"/>
</g>
<defs>
<clipPath id="clip0_9_1777">
<rect width="20" height="20" fill="white"/>
</clipPath>
</defs>
</svg>
