<svg width="67" height="58" viewBox="0 0 67 58" fill="none" xmlns="http://www.w3.org/2000/svg">
<g filter="url(#filter0_d_9_1244)">
<rect x="4" width="59" height="50" rx="10" fill="#3AAAFF" fill-opacity="0.15" shape-rendering="crispEdges"/>
<rect x="4.5" y="0.5" width="58" height="49" rx="9.5" stroke="#D5E8FE" shape-rendering="crispEdges"/>
<g clip-path="url(#clip0_9_1244)">
<path d="M20.375 18.125C20.375 14.328 23.453 11.25 27.25 11.25C31.047 11.25 34.125 14.328 34.125 18.125C34.125 21.922 31.047 25 27.25 25C23.453 25 20.375 21.922 20.375 18.125Z" fill="#3AAAFF"/>
<path d="M36.6252 18.125C36.6252 20.0004 36.0745 21.7472 35.126 23.2125C36.3471 24.3231 37.9696 25 39.7502 25C43.5472 25 46.6252 21.922 46.6252 18.125C46.6252 14.328 43.5472 11.25 39.7502 11.25C37.9696 11.25 36.3471 11.9269 35.126 13.0375C36.0745 14.5028 36.6252 16.2496 36.6252 18.125Z" fill="#3AAAFF"/>
<path d="M18.5 32.5C18.5 29.7386 20.7386 27.5 23.5 27.5H31C33.7614 27.5 36 29.7386 36 32.5V37.5C36 38.1904 35.4404 38.75 34.75 38.75H19.75C19.0596 38.75 18.5 38.1904 18.5 37.5V32.5Z" fill="#3AAAFF"/>
<path d="M38.4996 32.5V38.75H47.2496C47.9398 38.75 48.4996 38.1904 48.4996 37.5V32.5C48.4996 29.7386 46.261 27.5 43.4996 27.5H36.5898C37.7773 28.8269 38.4996 30.5791 38.4996 32.5Z" fill="#3AAAFF"/>
</g>
</g>
<defs>
<filter id="filter0_d_9_1244" x="0" y="0" width="67" height="58" filterUnits="userSpaceOnUse" color-interpolation-filters="sRGB">
<feFlood flood-opacity="0" result="BackgroundImageFix"/>
<feColorMatrix in="SourceAlpha" type="matrix" values="0 0 0 0 0 0 0 0 0 0 0 0 0 0 0 0 0 0 127 0" result="hardAlpha"/>
<feOffset dy="4"/>
<feGaussianBlur stdDeviation="2"/>
<feComposite in2="hardAlpha" operator="out"/>
<feColorMatrix type="matrix" values="0 0 0 0 0 0 0 0 0 0 0 0 0 0 0 0 0 0 0.03 0"/>
<feBlend mode="normal" in2="BackgroundImageFix" result="effect1_dropShadow_9_1244"/>
<feBlend mode="normal" in="SourceGraphic" in2="effect1_dropShadow_9_1244" result="shape"/>
</filter>
<clipPath id="clip0_9_1244">
<rect width="30" height="30" fill="white" transform="translate(18.5 10)"/>
</clipPath>
</defs>
</svg>
