<svg width="19" height="22" viewBox="0 0 19 22" fill="none" xmlns="http://www.w3.org/2000/svg">
<path d="M18.2618 0.75C18.2634 0.730469 18.2735 0.713281 18.2735 0.69375C18.2735 0.304688 17.9579 0.0218751 17.5821 0.00390634C17.5243 0.000781339 17.4673 0 17.4095 0C17.2673 0 17.1251 0.00703126 16.9837 0.0101563C16.761 0.0148438 16.5376 0.0117188 16.3134 0.0179688C15.7814 0.034375 15.2509 0.0476563 14.7189 0.0398438C14.1048 0.0312501 13.4884 0.00156247 12.8735 0.0132812C12.2235 0.0265625 11.5735 0.0367188 10.9251 0.0531251C10.3665 0.0679688 9.80948 0.0796874 9.25089 0.0859374C8.71573 0.0906249 8.18135 0.105469 7.6462 0.0945313C7.06104 0.0828125 6.47745 0.0781251 5.89229 0.0734376C5.25713 0.0687501 4.62198 0.0515625 3.98682 0.0546875C3.85088 0.0546875 3.72979 0.108594 3.62432 0.183594C3.38682 0.217187 3.17745 0.38125 3.10948 0.623438C2.92198 1.275 2.74073 1.92891 2.5962 2.59063C2.45792 3.23594 2.3251 3.88125 2.2001 4.52813C1.96573 5.73359 1.69307 6.93281 1.38526 8.12188C1.26417 8.59063 1.13057 9.05781 1.00479 9.52656C0.883698 9.98516 0.730572 10.4328 0.607135 10.8898C0.49776 11.2922 0.396197 11.6961 0.293072 12.1C0.250104 12.268 0.204791 12.4344 0.170416 12.6039C0.143854 12.7313 0.115729 12.8609 0.0766662 12.9859C0.03526 13.0773 0.0235412 13.1781 0.0258849 13.2773C-0.000677563 13.382 -0.0116151 13.4906 0.0165099 13.593C0.109479 13.9305 0.450885 14.1 0.781354 14.0266C1.93213 13.7672 3.0712 13.4578 4.2251 13.2039C4.7837 13.082 5.34385 12.9656 5.90948 12.868C6.12823 12.8313 6.34776 12.7984 6.56729 12.7633C6.48448 13.0492 6.39776 13.3344 6.30167 13.6164C6.11338 14.1688 5.90557 14.7172 5.6962 15.2641C5.47979 15.8344 5.25713 16.4031 5.02979 16.9719C4.81495 17.5125 4.64385 18.0727 4.43917 18.6195C4.29776 18.9969 4.13838 19.3664 4.01182 19.75C3.92198 20.0156 3.8587 20.2875 3.7626 20.55C3.78292 20.5031 3.80245 20.4539 3.82276 20.407C3.8212 20.4117 3.81807 20.4172 3.81651 20.4219C3.76026 20.5539 3.73448 20.675 3.75245 20.8109C3.73604 20.8258 3.72198 20.8438 3.70557 20.8578C3.45635 21.0688 3.48917 21.4852 3.70557 21.7023C3.93213 21.9297 4.32276 21.9352 4.5501 21.7023C4.71964 21.5281 4.8712 21.3336 5.03526 21.1555C5.23838 20.9328 5.44776 20.7195 5.65088 20.4984C6.06651 20.0492 6.47042 19.5867 6.88995 19.1414C7.31104 18.6953 7.72979 18.2445 8.17354 17.8164C8.60792 17.3977 9.03135 16.9695 9.4587 16.5414C9.87979 16.1203 10.3204 15.7203 10.7392 15.2961C11.1798 14.8492 11.6118 14.3945 12.0345 13.9297C12.8657 13.0164 13.8024 12.207 14.6548 11.3125C15.0735 10.8734 15.4876 10.4281 15.9173 10C16.3626 9.55469 16.8001 9.10234 17.2345 8.64844C17.4689 8.40234 17.479 8.01016 17.2345 7.76563C17.1157 7.64688 16.9493 7.58516 16.7837 7.58516C16.7579 7.58516 16.7329 7.59609 16.7071 7.6C16.6618 7.58828 16.6173 7.57188 16.5689 7.57422C16.0618 7.59609 15.5524 7.57578 15.0454 7.56094C14.8157 7.55469 14.586 7.5375 14.3571 7.51875C14.5024 7.29531 14.6446 7.07031 14.7681 6.83516C15.0345 6.33438 15.3485 5.85859 15.6407 5.37188C15.9485 4.85781 16.2446 4.33594 16.554 3.82188C16.8603 3.31172 17.1907 2.81719 17.5118 2.31719C17.7306 1.97813 17.9407 1.63516 18.1759 1.30781C18.1782 1.30469 18.1806 1.30156 18.1829 1.29844C18.1899 1.28906 18.197 1.27891 18.2032 1.26953C18.2001 1.27422 18.1962 1.27891 18.1931 1.28359C18.3017 1.12266 18.3267 0.925781 18.2618 0.75ZM16.2681 2.15469C15.9524 2.64531 15.6376 3.13594 15.3399 3.63984C15.0407 4.15 14.7399 4.65938 14.4368 5.16797C14.2907 5.41406 14.1439 5.66016 13.9931 5.90313C13.847 6.13906 13.7189 6.38203 13.5837 6.62188C13.411 6.92578 13.2228 7.22188 13.0165 7.50313C12.972 7.56484 12.9501 7.64375 12.9423 7.725C12.8829 7.82109 12.8407 7.92656 12.8407 8.04063C12.8407 8.20234 12.9056 8.35859 13.0189 8.47188C13.1415 8.59375 13.2829 8.63516 13.4509 8.65156C13.9829 8.7 14.5134 8.71328 15.047 8.70625C15.2009 8.70313 15.354 8.70234 15.5071 8.70078C14.936 9.33594 14.3673 9.97266 13.7814 10.593C13.372 11.0273 12.9368 11.4359 12.5056 11.8469C12.0431 12.2875 11.5931 12.7367 11.1634 13.2102C10.7431 13.6742 10.3087 14.1266 9.87276 14.5766C9.4587 15.0039 9.02276 15.4078 8.59776 15.825C8.17042 16.2453 7.7501 16.6695 7.31885 17.0852C6.87354 17.5141 6.4626 17.9766 6.0337 18.4234C5.88604 18.5781 5.74229 18.7359 5.59776 18.8938C5.61807 18.8406 5.63682 18.7867 5.65714 18.7328C5.85792 18.1906 6.00479 17.6273 6.20088 17.082C6.40714 16.5117 6.61807 15.9414 6.82745 15.3727C7.0251 14.8391 7.23135 14.3086 7.43292 13.7781C7.59385 13.3539 7.74854 12.9281 7.88448 12.4961C7.90167 12.482 7.92432 12.475 7.93995 12.4586C8.21964 12.1789 8.18604 11.6305 7.8087 11.443C7.70167 11.3891 7.59932 11.343 7.47588 11.343C7.47042 11.343 7.46495 11.343 7.45948 11.343C7.36651 11.3477 7.27354 11.3609 7.18213 11.3813C7.12354 11.3945 7.06417 11.4063 7.00401 11.418C6.86807 11.4445 6.73135 11.468 6.59464 11.493C6.34229 11.5375 6.0962 11.5914 5.84932 11.6523C5.26729 11.7953 4.68214 11.9281 4.09854 12.0664C3.53135 12.2023 2.96417 12.3336 2.39229 12.4469C2.05167 12.5133 1.71182 12.5813 1.3712 12.6477C1.37276 12.6398 1.37432 12.6313 1.37589 12.6227C1.42432 12.368 1.49385 12.1188 1.5501 11.8664C1.66807 11.3391 1.80323 10.8203 1.94229 10.2969C2.26182 9.08594 2.54932 7.86719 2.84151 6.64844C3.05401 5.7625 3.23213 4.86953 3.45323 3.9875C3.67667 3.09766 3.92823 2.21797 4.18839 1.33984C4.79542 1.32578 5.40323 1.30547 6.01026 1.29297C6.65557 1.27969 7.29932 1.25937 7.94542 1.25C9.19932 1.23359 10.4548 1.23672 11.7087 1.26016C13.3954 1.29062 15.0837 1.32266 16.7696 1.36641C16.7673 1.36953 16.7649 1.37344 16.7634 1.37656C16.5978 1.6375 16.4345 1.89688 16.2681 2.15469Z" fill="#3A3FBB"/>
</svg>
