<svg width="20" height="12" viewBox="0 0 20 12" fill="none" xmlns="http://www.w3.org/2000/svg">
<path d="M18.4375 0.00250012C17.5744 0.00250012 16.875 0.7025 16.875 1.565C16.875 1.7425 16.9112 1.90938 16.965 2.06813L13.1562 5.3475C12.8894 5.13437 12.5556 5.00187 12.1875 5.00187C11.7625 5.00187 11.3787 5.1725 11.0975 5.4475L8.11375 3.95375C8.05562 3.14375 7.3875 2.50187 6.5625 2.50187C5.7 2.50187 5 3.20187 5 4.06437C5 4.30062 5.05625 4.52187 5.15 4.7225L2.10812 8.23C1.9375 8.16625 1.75563 8.12625 1.5625 8.12625C0.699375 8.12625 0 8.82562 0 9.68875C0 10.5519 0.699375 11.2512 1.5625 11.2512C2.42563 11.2512 3.125 10.5519 3.125 9.68875C3.125 9.48125 3.0825 9.28312 3.00875 9.10188L6.1 5.54875C6.2475 5.59438 6.4 5.62625 6.5625 5.62625C7.01687 5.62625 7.42312 5.42875 7.70875 5.11813L10.6269 6.58125C10.6375 7.43562 11.3313 8.12562 12.1875 8.12562C13.0506 8.12562 13.75 7.42625 13.75 6.56312C13.75 6.53562 13.7431 6.50938 13.7419 6.48188L17.8062 2.99C17.9994 3.07562 18.2119 3.125 18.4375 3.125C19.3006 3.125 20 2.42563 20 1.5625C20 0.699375 19.3006 0 18.4375 0V0.00250012Z" fill="#6B7CFF" fill-opacity="0.9"/>
</svg>
