<svg width="20" height="20" viewBox="0 0 20 20" fill="none" xmlns="http://www.w3.org/2000/svg">
<g clip-path="url(#clip0_3054_1773)">
<path d="M18.4375 4.37457C17.5744 4.37457 16.875 5.07457 16.875 5.93707C16.875 6.11457 16.9112 6.28145 16.965 6.4402L13.1562 9.71957C12.8894 9.50644 12.5556 9.37395 12.1875 9.37395C11.7625 9.37395 11.3787 9.54457 11.0975 9.81957L8.11375 8.32582C8.05562 7.51582 7.3875 6.87395 6.5625 6.87395C5.7 6.87395 5 7.57395 5 8.43645C5 8.6727 5.05625 8.89395 5.15 9.09457L2.10812 12.6021C1.9375 12.5383 1.75563 12.4983 1.5625 12.4983C0.699375 12.4983 0 13.1977 0 14.0608C0 14.9239 0.699375 15.6233 1.5625 15.6233C2.42563 15.6233 3.125 14.9239 3.125 14.0608C3.125 13.8533 3.0825 13.6552 3.00875 13.4739L6.1 9.92082C6.2475 9.96645 6.4 9.99832 6.5625 9.99832C7.01687 9.99832 7.42312 9.80082 7.70875 9.4902L10.6269 10.9533C10.6375 11.8077 11.3313 12.4977 12.1875 12.4977C13.0506 12.4977 13.75 11.7983 13.75 10.9352C13.75 10.9077 13.7431 10.8814 13.7419 10.8539L17.8062 7.36207C17.9994 7.4477 18.2119 7.49707 18.4375 7.49707C19.3006 7.49707 20 6.7977 20 5.93457C20 5.07145 19.3006 4.37207 18.4375 4.37207V4.37457Z" fill="#3A3FBB"/>
</g>
<defs>
<clipPath id="clip0_3054_1773">
<rect width="20" height="20" fill="white"/>
</clipPath>
</defs>
</svg>
