<svg width="25" height="25" viewBox="0 0 25 25" fill="none" xmlns="http://www.w3.org/2000/svg">
<g filter="url(#filter0_d_9_1791)">
<path fill-rule="evenodd" clip-rule="evenodd" d="M5.22039 3.22039C4 4.44077 4 6.40496 4 10.3333C4 14.2617 4 16.2259 5.22039 17.4462C6.44077 18.6667 8.40496 18.6667 12.3333 18.6667C16.2617 18.6667 18.2259 18.6667 19.4462 17.4462C20.6667 16.2259 20.6667 14.2617 20.6667 10.3333C20.6667 6.40496 20.6667 4.44077 19.4462 3.22039C18.2259 2 16.2617 2 12.3333 2C8.40496 2 6.44077 2 5.22039 3.22039ZM13.7917 8.66667C13.7917 9.01183 14.0715 9.29167 14.4167 9.29167H14.9911L13.314 10.9688C13.2326 11.0502 13.1007 11.0502 13.0193 10.9688L11.6978 9.64733C11.1283 9.07783 10.205 9.07783 9.63547 9.64733L7.72472 11.5581C7.48065 11.8022 7.48065 12.1978 7.72472 12.4419C7.9688 12.686 8.36453 12.686 8.60861 12.4419L10.5194 10.5312C10.6007 10.4498 10.7326 10.4498 10.814 10.5312L12.1355 11.8527C12.705 12.4222 13.6283 12.4222 14.1978 11.8527L15.875 10.1756V10.75C15.875 11.0952 16.1548 11.375 16.5 11.375C16.8452 11.375 17.125 11.0952 17.125 10.75V8.66667C17.125 8.32149 16.8452 8.04167 16.5 8.04167H14.4167C14.0715 8.04167 13.7917 8.32149 13.7917 8.66667Z" fill="#01C32B"/>
<path d="M12.333 2.5C14.3113 2.5 15.7453 2.50141 16.8389 2.64844C17.9179 2.79354 18.591 3.07245 19.0928 3.57422C19.5945 4.07601 19.8735 4.74905 20.0186 5.82812C20.1656 6.92163 20.167 8.35493 20.167 10.333C20.167 12.3113 20.1656 13.7453 20.0186 14.8389C19.8734 15.918 19.5946 16.591 19.0928 17.0928C18.591 17.5946 17.918 17.8734 16.8389 18.0186C15.7453 18.1656 14.3113 18.167 12.333 18.167C10.3549 18.167 8.92163 18.1656 7.82812 18.0186C6.74905 17.8735 6.07601 17.5945 5.57422 17.0928C5.07245 16.591 4.79354 15.9179 4.64844 14.8389C4.50141 13.7453 4.5 12.3113 4.5 10.333C4.5 8.35491 4.50143 6.92163 4.64844 5.82812C4.79353 4.74893 5.07241 4.07603 5.57422 3.57422C6.07603 3.07241 6.74893 2.79353 7.82812 2.64844C8.92163 2.50143 10.3549 2.5 12.333 2.5ZM14.417 7.54199C13.7957 7.54199 13.292 8.04567 13.292 8.66699C13.2921 9.10416 13.5419 9.48186 13.9062 9.66797L13.166 10.4082L12.0518 9.29395C11.287 8.5292 10.047 8.52926 9.28223 9.29395L7.37109 11.2041C6.93176 11.6434 6.93176 12.3566 7.37109 12.7959C7.81033 13.235 8.52261 13.2348 8.96191 12.7959L10.666 11.0908L11.7822 12.2061C12.547 12.9708 13.787 12.9708 14.5518 12.2061L15.498 11.2588C15.6839 11.6241 16.0621 11.875 16.5 11.875C17.1213 11.875 17.625 11.3713 17.625 10.75V8.66699C17.625 8.04567 17.1213 7.54199 16.5 7.54199H14.417Z" stroke="#01C32B"/>
</g>
<defs>
<filter id="filter0_d_9_1791" x="0" y="0" width="24.667" height="24.6666" filterUnits="userSpaceOnUse" color-interpolation-filters="sRGB">
<feFlood flood-opacity="0" result="BackgroundImageFix"/>
<feColorMatrix in="SourceAlpha" type="matrix" values="0 0 0 0 0 0 0 0 0 0 0 0 0 0 0 0 0 0 127 0" result="hardAlpha"/>
<feOffset dy="2"/>
<feGaussianBlur stdDeviation="2"/>
<feComposite in2="hardAlpha" operator="out"/>
<feColorMatrix type="matrix" values="0 0 0 0 0 0 0 0 0 0 0 0 0 0 0 0 0 0 0.03 0"/>
<feBlend mode="normal" in2="BackgroundImageFix" result="effect1_dropShadow_9_1791"/>
<feBlend mode="normal" in="SourceGraphic" in2="effect1_dropShadow_9_1791" result="shape"/>
</filter>
</defs>
</svg>
