<svg width="21" height="21" viewBox="0 0 21 21" fill="none" xmlns="http://www.w3.org/2000/svg">
<path fill-rule="evenodd" clip-rule="evenodd" d="M1.52549 1.52549C-1.24176e-07 3.05097 0 5.5062 0 10.4167C0 15.3271 -1.24176e-07 17.7824 1.52549 19.3078C3.05097 20.8333 5.5062 20.8333 10.4167 20.8333C15.3271 20.8333 17.7824 20.8333 19.3078 19.3078C20.8333 17.7824 20.8333 15.3271 20.8333 10.4167C20.8333 5.5062 20.8333 3.05097 19.3078 1.52549C17.7824 -1.24176e-07 15.3271 0 10.4167 0C5.5062 0 3.05097 -1.24176e-07 1.52549 1.52549ZM12.2396 8.33333C12.2396 8.76479 12.5894 9.11458 13.0208 9.11458H13.7389L11.6425 11.211C11.5407 11.3127 11.3759 11.3127 11.2742 11.211L9.62229 9.55917C8.91042 8.84729 7.75623 8.84729 7.04433 9.55917L4.65591 11.9476C4.35081 12.2527 4.35081 12.7473 4.65591 13.0524C4.961 13.3575 5.45567 13.3575 5.76076 13.0524L8.14919 10.664C8.25089 10.5623 8.41573 10.5623 8.5175 10.664L10.1694 12.3158C10.8812 13.0277 12.0354 13.0277 12.7473 12.3158L14.8437 10.2195V10.9375C14.8437 11.369 15.1935 11.7188 15.625 11.7188C16.0565 11.7188 16.4062 11.369 16.4062 10.9375V8.33333C16.4062 7.90186 16.0565 7.55208 15.625 7.55208H13.0208C12.5894 7.55208 12.2396 7.90186 12.2396 8.33333Z" fill="#3A3FBB"/>
</svg>
