<svg width="20" height="20" viewBox="0 0 20 20" fill="none" xmlns="http://www.w3.org/2000/svg">
<path fill-rule="evenodd" clip-rule="evenodd" d="M8.35604 0.932202C8.08011 1.07976 7.9444 1.34741 7.91535 1.65014C7.90284 1.79658 7.88405 1.94198 7.85851 2.08679C7.80429 2.39416 7.70157 2.82851 7.50908 3.3197C7.12512 4.29952 6.3909 5.49148 4.97392 6.37705C2.97702 7.62506 2.23632 10.4293 2.55284 12.9396C2.87599 15.5026 4.33963 18.159 7.2355 19.1243C7.52404 19.2205 7.84207 19.1518 8.06523 18.9452C8.33829 18.6923 8.35221 18.3573 8.28281 18.019C8.23188 17.7708 8.12403 17.1492 8.12403 16.4067C8.12403 16.1664 8.13514 15.9199 8.16082 15.6728C8.60588 16.6929 9.20921 17.4369 9.81221 17.969C10.7092 18.7605 11.5569 19.0483 11.8092 19.1226C12.0007 19.179 12.2042 19.1825 12.3917 19.1074C14.606 18.2218 16 17.0198 16.7787 15.6456C17.5557 14.2744 17.6651 12.8287 17.4913 11.5544C17.3185 10.2868 16.8619 9.15451 16.4605 8.35168C16.1569 7.74453 15.8769 7.30952 15.7484 7.11911C15.5908 6.88577 15.3855 6.70564 15.093 6.67239C14.86 6.64589 14.6266 6.71882 14.4501 6.87325L13.146 8.01448C13.258 6.20444 12.6212 4.68373 11.8309 3.53769C11.257 2.7055 10.6021 2.06637 10.095 1.63671C9.84021 1.42083 9.61929 1.255 9.45946 1.14145C9.37937 1.08462 9.31437 1.04069 9.26771 1.00994C8.99137 0.827852 8.65996 0.769698 8.35604 0.932202ZM6.46901 16.8804C6.46163 16.7291 6.45737 16.5706 6.45737 16.4067C6.45737 15.5293 6.57968 14.422 7.06406 13.3928C7.2263 13.0481 7.42916 12.7121 7.68166 12.3965C7.89411 12.1309 8.24662 12.0211 8.57229 12.119C8.89796 12.2169 9.13154 12.5029 9.16229 12.8416C9.35079 14.9152 10.1845 16.0748 10.9149 16.7193C11.2881 17.0487 11.6482 17.2551 11.909 17.3775C12.9157 17.5003 14.9031 15.5748 15.3286 14.8239C15.8798 13.8513 15.9787 12.7971 15.84 11.7797C15.6779 10.5914 15.191 9.49184 14.8037 8.77851L12.2145 11.0442C11.9185 11.3033 11.4815 11.32 11.1665 11.0844C10.8515 10.8488 10.7442 10.425 10.909 10.0678C12.0058 7.69154 11.3782 5.81699 10.4589 4.48392C10.0939 3.95477 9.68312 3.51417 9.31571 3.17289C9.24896 3.40709 9.16546 3.66094 9.06087 3.92779C8.91237 4.30672 8.72087 4.71318 8.47437 5.12699C7.92238 6.05359 7.09473 7.01699 5.85722 7.7904C4.64698 8.54676 3.92943 10.5343 4.20642 12.7311C4.41524 14.3873 5.16772 15.9374 6.46901 16.8804Z" fill="#3A3FBB"/>
</svg>
