<svg width="15" height="15" viewBox="0 0 15 15" fill="none" xmlns="http://www.w3.org/2000/svg">
<path d="M4.375 8.75L5.80806 7.31694C6.05214 7.07287 6.44787 7.07287 6.69194 7.31694L7.68306 8.30806C7.92712 8.55213 8.32287 8.55213 8.56694 8.30806L10.625 6.25M10.625 6.25V7.8125M10.625 6.25H9.0625" stroke="#0A0D1A" stroke-opacity="0.7" stroke-linecap="round" stroke-linejoin="round"/>
<path d="M13.75 7.5C13.75 10.4462 13.75 11.9194 12.8347 12.8347C11.9194 13.75 10.4462 13.75 7.5 13.75C4.55372 13.75 3.08058 13.75 2.16529 12.8347C1.25 11.9194 1.25 10.4462 1.25 7.5C1.25 4.55372 1.25 3.08058 2.16529 2.16529C3.08058 1.25 4.55372 1.25 7.5 1.25C10.4462 1.25 11.9194 1.25 12.8347 2.16529C13.4433 2.77388 13.6472 3.62909 13.7156 5" stroke="#0A0D1A" stroke-opacity="0.7" stroke-linecap="round"/>
</svg>
