<svg width="25" height="25" viewBox="0 0 25 25" fill="none" xmlns="http://www.w3.org/2000/svg">
<path d="M21.0941 23.698H3.90658C3.61855 23.698 3.38574 23.4646 3.38574 23.1771V3.38546C3.38574 3.09796 3.61855 2.86462 3.90658 2.86462H21.0941C21.3821 2.86462 21.6149 3.09796 21.6149 3.38546V23.1771C21.6149 23.4646 21.3821 23.698 21.0941 23.698Z" fill="#8C9EFF"/>
<path d="M21.0938 23.9584H3.90625C3.47552 23.9584 3.125 23.6078 3.125 23.1771V3.38544C3.125 2.95471 3.47552 2.60419 3.90625 2.60419H7.57396C7.71771 2.60419 7.83437 2.72085 7.83437 2.8646C7.83437 3.00835 7.71771 3.12502 7.57396 3.12502H3.90625C3.7625 3.12502 3.64583 3.24169 3.64583 3.38544V23.1771C3.64583 23.3209 3.7625 23.4375 3.90625 23.4375H21.0938C21.2375 23.4375 21.3542 23.3209 21.3542 23.1771V3.38544C21.3542 3.24169 21.2375 3.12502 21.0938 3.12502H17.4703C17.3266 3.12502 17.2099 3.00835 17.2099 2.8646C17.2099 2.72085 17.3266 2.60419 17.4703 2.60419H21.0938C21.5245 2.60419 21.875 2.95471 21.875 3.38544V23.1771C21.875 23.6078 21.5245 23.9584 21.0938 23.9584Z" fill="#0277BD"/>
<path d="M16.8331 22.1354H5.20866C5.06491 22.1354 4.94824 22.0187 4.94824 21.875V4.16667C4.94824 4.02292 5.06491 3.90625 5.20866 3.90625H19.792C19.9357 3.90625 20.0524 4.02292 20.0524 4.16667V19.4094C20.0524 19.4865 20.018 19.5599 19.9587 19.6094L16.9998 22.075C16.9535 22.1141 16.8946 22.1354 16.8331 22.1354Z" fill="#F5F5F5"/>
<path d="M17.0179 21.875H5.20801V4.16669H7.55176C7.69551 4.16669 7.81217 4.28335 7.81217 4.4271C7.81217 4.57085 7.69551 4.68752 7.55176 4.68752H5.72884V21.3542H16.8356L19.2705 19.4063V4.68752H17.4476C17.3038 4.68752 17.1872 4.57085 17.1872 4.4271C17.1872 4.28335 17.3038 4.16669 17.4476 4.16669H19.7913V19.6568L17.0179 21.875Z" fill="white"/>
<path d="M16.8328 22.3959H5.20833C4.92135 22.3959 4.6875 22.162 4.6875 21.875V4.16671C4.6875 3.87973 4.92135 3.64587 5.20833 3.64587H7.55208C7.69583 3.64587 7.8125 3.76254 7.8125 3.90629C7.8125 4.05004 7.69583 4.16671 7.55208 4.16671H5.20833V21.875H16.8328L19.7917 19.4094V4.16671H17.4479C17.3042 4.16671 17.1875 4.05004 17.1875 3.90629C17.1875 3.76254 17.3042 3.64587 17.4479 3.64587H19.7917C20.0786 3.64587 20.3125 3.87973 20.3125 4.16671V19.4094C20.3125 19.5636 20.2448 19.7094 20.126 19.8089L17.1667 22.275C17.0729 22.3532 16.9547 22.3959 16.8328 22.3959Z" fill="#0277BD"/>
<path d="M3.90592 22.3959C3.76217 22.3959 3.64551 22.2792 3.64551 22.1354V4.4271C3.64551 4.28335 3.76217 4.16669 3.90592 4.16669C4.04967 4.16669 4.16634 4.28335 4.16634 4.4271V22.1354C4.16634 22.2792 4.04967 22.3959 3.90592 22.3959Z" fill="#E8EAF6"/>
<path d="M16.9277 21.9131V19.7917C16.9277 19.648 17.0444 19.5313 17.1882 19.5313H19.7647C19.8626 19.5313 19.9064 19.6532 19.8314 19.7157L17.0986 21.9933C17.0309 22.0495 16.9277 22.0016 16.9277 21.9131Z" fill="#EEEEEE"/>
<path d="M17.0326 22.2782C16.98 22.2782 16.9269 22.2667 16.8769 22.2433C16.7472 22.1823 16.667 22.0563 16.667 21.9131V19.7917C16.667 19.5047 16.9008 19.2709 17.1878 19.2709H19.7644C19.9201 19.2709 20.055 19.3657 20.1076 19.512C20.1602 19.6584 20.117 19.8167 19.9972 19.9162L17.2649 22.1933C17.1977 22.249 17.116 22.2782 17.0326 22.2782ZM17.1878 19.7917V21.5797L19.3331 19.7917H17.1878Z" fill="#0277BD"/>
<path d="M13.9745 2.34379C13.7594 1.73806 13.187 1.30212 12.5078 1.30212C11.8286 1.30212 11.2568 1.73806 11.0417 2.34379H8.86198C8.71875 2.34379 8.60156 2.46046 8.60156 2.60421V4.68754C8.60156 4.83129 8.71875 4.94796 8.86198 4.94796H16.1536C16.2974 4.94796 16.4141 4.83129 16.4141 4.68754V2.60421C16.4141 2.46046 16.2974 2.34379 16.1536 2.34379H13.9745Z" fill="#EEEEEE"/>
<path d="M16.1533 5.20835H8.86165C8.57467 5.20835 8.34082 4.9745 8.34082 4.68752V2.60419C8.34082 2.31721 8.57467 2.08335 8.86165 2.08335H10.8674C11.1669 1.45367 11.8044 1.04169 12.5075 1.04169C13.2111 1.04169 13.8486 1.45367 14.1481 2.08335H16.1533C16.4403 2.08335 16.6742 2.31721 16.6742 2.60419V4.68752C16.6742 4.9745 16.4403 5.20835 16.1533 5.20835ZM8.86165 2.60419V4.68752H16.1533V2.60419H13.9742C13.8643 2.60419 13.7658 2.53492 13.7288 2.43075C13.5439 1.91148 13.0533 1.56252 12.5075 1.56252C11.9617 1.56252 11.471 1.91148 11.2867 2.43075C11.2497 2.53492 11.1512 2.60419 11.0408 2.60419H8.86165Z" fill="#0277BD"/>
<path d="M9.12272 4.16667C8.97897 4.16667 8.8623 4.05 8.8623 3.90625V2.60417H11.0415C11.1514 2.60417 11.2503 2.5349 11.2868 2.43073C11.4712 1.91146 11.9623 1.5625 12.5081 1.5625C12.6519 1.5625 12.7686 1.67917 12.7686 1.82292C12.7686 1.96667 12.6519 2.08333 12.5081 2.08333C12.1826 2.08333 11.8889 2.29323 11.7774 2.60521C11.667 2.91615 11.3712 3.125 11.041 3.125H9.38262V3.90625C9.38314 4.05 9.26647 4.16667 9.12272 4.16667Z" fill="white"/>
<path d="M9.63574 18.2292H7.55241C7.40866 18.2292 7.29199 18.1125 7.29199 17.9688V15.8854C7.29199 15.7417 7.40866 15.625 7.55241 15.625H9.63574C9.77949 15.625 9.89616 15.7417 9.89616 15.8854V17.9688C9.89616 18.1125 9.77949 18.2292 9.63574 18.2292ZM7.81283 17.7083H9.37533V16.1458H7.81283V17.7083Z" fill="#0277BD"/>
<path d="M9.63574 14.0625H7.55241C7.40866 14.0625 7.29199 13.9459 7.29199 13.8021V11.7188C7.29199 11.575 7.40866 11.4584 7.55241 11.4584H9.63574C9.77949 11.4584 9.89616 11.575 9.89616 11.7188V13.8021C9.89616 13.9459 9.77949 14.0625 9.63574 14.0625ZM7.81283 13.5417H9.37533V11.9792H7.81283V13.5417Z" fill="#0277BD"/>
<path d="M9.63574 9.89585H7.55241C7.40866 9.89585 7.29199 9.77919 7.29199 9.63544V7.5521C7.29199 7.40835 7.40866 7.29169 7.55241 7.29169H9.63574C9.77949 7.29169 9.89616 7.40835 9.89616 7.5521V9.63544C9.89616 9.77919 9.77949 9.89585 9.63574 9.89585ZM7.81283 9.37502H9.37533V7.81252H7.81283V9.37502Z" fill="#0277BD"/>
<path d="M17.4479 17.7083H11.1979C11.0542 17.7083 10.9375 17.5917 10.9375 17.4479C10.9375 17.3042 11.0542 17.1875 11.1979 17.1875H17.4479C17.5917 17.1875 17.7083 17.3042 17.7083 17.4479C17.7083 17.5917 17.5917 17.7083 17.4479 17.7083Z" fill="#0277BD"/>
<path d="M17.4479 16.6667H11.1979C11.0542 16.6667 10.9375 16.55 10.9375 16.4063C10.9375 16.2625 11.0542 16.1459 11.1979 16.1459H17.4479C17.5917 16.1459 17.7083 16.2625 17.7083 16.4063C17.7083 16.55 17.5917 16.6667 17.4479 16.6667Z" fill="#0277BD"/>
<path d="M17.4479 13.5417H11.1979C11.0542 13.5417 10.9375 13.425 10.9375 13.2813C10.9375 13.1375 11.0542 13.0209 11.1979 13.0209H17.4479C17.5917 13.0209 17.7083 13.1375 17.7083 13.2813C17.7083 13.425 17.5917 13.5417 17.4479 13.5417Z" fill="#0277BD"/>
<path d="M17.4479 12.5H11.1979C11.0542 12.5 10.9375 12.3834 10.9375 12.2396C10.9375 12.0959 11.0542 11.9792 11.1979 11.9792H17.4479C17.5917 11.9792 17.7083 12.0959 17.7083 12.2396C17.7083 12.3834 17.5917 12.5 17.4479 12.5Z" fill="#0277BD"/>
<path d="M17.4479 9.37502H11.1979C11.0542 9.37502 10.9375 9.25835 10.9375 9.1146C10.9375 8.97085 11.0542 8.85419 11.1979 8.85419H17.4479C17.5917 8.85419 17.7083 8.97085 17.7083 9.1146C17.7083 9.25835 17.5917 9.37502 17.4479 9.37502Z" fill="#0277BD"/>
<path d="M17.4479 8.33333H11.1979C11.0542 8.33333 10.9375 8.21667 10.9375 8.07292C10.9375 7.92917 11.0542 7.8125 11.1979 7.8125H17.4479C17.5917 7.8125 17.7083 7.92917 17.7083 8.07292C17.7083 8.21667 17.5917 8.33333 17.4479 8.33333Z" fill="#0277BD"/>
</svg>
