<svg width="20" height="20" viewBox="0 0 20 20" fill="none" xmlns="http://www.w3.org/2000/svg">
<path d="M16.4577 12.8612V2.70833C16.4577 2.48732 16.3699 2.27536 16.2136 2.11908C16.0573 1.9628 15.8454 1.875 15.6243 1.875H4.37435C4.15334 1.875 3.94137 1.9628 3.78509 2.11908C3.62881 2.27536 3.54102 2.48732 3.54102 2.70833V17.2917C3.54102 17.5127 3.62881 17.7246 3.78509 17.8809C3.94137 18.0372 4.15334 18.125 4.37435 18.125H15.6243C15.8454 18.125 16.0573 18.0372 16.2136 17.8809C16.3699 17.7246 16.4577 17.5127 16.4577 17.2917V16.6796" stroke="#3A3FBB" stroke-linecap="round" stroke-linejoin="round"/>
<path d="M15.4718 15.6917L8.86914 9.07275V7.1875H10.7993L17.3763 13.7823" stroke="#3A3FBB" stroke-linecap="round" stroke-linejoin="round"/>
<path d="M18.4646 15.8268C18.5908 15.7 18.6616 15.5285 18.6616 15.3496C18.6616 15.1707 18.5908 14.9992 18.4646 14.8724L17.3771 13.7822L15.4727 15.6916L16.5602 16.7817C16.6226 16.8443 16.6968 16.894 16.7785 16.9279C16.8602 16.9618 16.9477 16.9793 17.0362 16.9793C17.1246 16.9793 17.2122 16.9618 17.2939 16.9279C17.3755 16.894 17.4497 16.8443 17.5122 16.7817L18.4646 15.8268Z" stroke="#3A3FBB" stroke-linecap="round" stroke-linejoin="round"/>
<path d="M5.41602 4.375H14.5827" stroke="#3A3FBB" stroke-linecap="round" stroke-linejoin="round"/>
<path d="M5.41602 7.1875H8.86922" stroke="#3A3FBB" stroke-linecap="round" stroke-linejoin="round"/>
<path d="M13.6055 10H14.584" stroke="#3A3FBB" stroke-linecap="round" stroke-linejoin="round"/>
<path d="M5.41602 10H9.79422" stroke="#3A3FBB" stroke-linecap="round" stroke-linejoin="round"/>
<path d="M5.41602 12.8125H12.4948" stroke="#3A3FBB" stroke-linecap="round" stroke-linejoin="round"/>
<path d="M5.41602 15.625H14.5827" stroke="#3A3FBB" stroke-linecap="round" stroke-linejoin="round"/>
</svg>
