<svg width="15" height="15" viewBox="0 0 15 15" fill="none" xmlns="http://www.w3.org/2000/svg">
<path d="M5.625 12.9683H3.75C3.53328 12.9775 3.31686 12.9439 3.11313 12.8694C2.90941 12.7949 2.72237 12.681 2.56274 12.5341C2.40309 12.3872 2.27398 12.2103 2.18279 12.0135C2.09159 11.8166 2.04009 11.6038 2.03125 11.387V3.61204C2.04009 3.3953 2.09159 3.18243 2.18279 2.98561C2.27398 2.78879 2.40309 2.61188 2.56274 2.46501C2.72237 2.31814 2.90941 2.20419 3.11313 2.12969C3.31686 2.05518 3.53328 2.02157 3.75 2.03079H5.625C5.74932 2.03079 5.86855 2.08018 5.95646 2.16808C6.04436 2.25599 6.09375 2.37522 6.09375 2.49954C6.09375 2.62386 6.04436 2.74309 5.95646 2.83099C5.86855 2.91891 5.74932 2.96829 5.625 2.96829H3.75C3.56442 2.95215 3.37975 3.00807 3.23429 3.12443C3.08883 3.2408 2.99374 3.40869 2.96875 3.59329V11.387C2.99374 11.5716 3.08883 11.7395 3.23429 11.8559C3.37975 11.9723 3.56442 12.0282 3.75 12.012H5.625C5.74932 12.012 5.86855 12.0615 5.95646 12.1493C6.04436 12.2373 6.09375 12.3565 6.09375 12.4808C6.09375 12.6051 6.04436 12.7243 5.95646 12.8123C5.86855 12.9001 5.74932 12.9495 5.625 12.9495V12.9683Z" fill="#0A0D1A"/>
<path d="M9.99998 10.4687C9.93842 10.469 9.87736 10.457 9.82048 10.4334C9.76361 10.4098 9.71198 10.375 9.66873 10.3312C9.58098 10.2433 9.53167 10.1242 9.53167 9.99997C9.53167 9.87578 9.58098 9.75659 9.66873 9.66872L11.8375 7.49997L9.66873 5.33122C9.62267 5.28831 9.58573 5.23656 9.56011 5.17906C9.53448 5.12156 9.52073 5.05949 9.51961 4.99655C9.51848 4.93361 9.53011 4.87109 9.55367 4.81272C9.57723 4.75435 9.61229 4.70134 9.65686 4.65682C9.70136 4.61231 9.75436 4.57722 9.81273 4.55365C9.87111 4.53007 9.93361 4.51849 9.99654 4.5196C10.0595 4.52071 10.1215 4.53449 10.179 4.56011C10.2365 4.58573 10.2883 4.62267 10.3312 4.66872L12.8312 7.16872C12.919 7.25659 12.9683 7.37578 12.9683 7.49997C12.9683 7.62422 12.919 7.74334 12.8312 7.83122L10.3312 10.3312C10.288 10.375 10.2364 10.4098 10.1795 10.4334C10.1226 10.457 10.0615 10.469 9.99998 10.4687Z" fill="black"/>
<path d="M12.5 7.96875H5.625C5.50068 7.96875 5.38145 7.91938 5.29354 7.83144C5.20564 7.74356 5.15625 7.62431 5.15625 7.5C5.15625 7.37569 5.20564 7.25644 5.29354 7.16856C5.38145 7.08062 5.50068 7.03125 5.625 7.03125H12.5C12.6243 7.03125 12.7436 7.08062 12.8314 7.16856C12.9194 7.25644 12.9688 7.37569 12.9688 7.5C12.9688 7.62431 12.9194 7.74356 12.8314 7.83144C12.7436 7.91938 12.6243 7.96875 12.5 7.96875Z" fill="#0A0D1A"/>
</svg>
