<svg width="15" height="15" viewBox="0 0 15 15" fill="none" xmlns="http://www.w3.org/2000/svg">
<g clip-path="url(#clip0_2768_1058)">
<path d="M7.65865 1.87719C7.60595 1.87573 7.55306 1.875 7.5 1.875C4.3934 1.875 1.875 4.3934 1.875 7.5C1.875 10.6066 4.3934 13.125 7.5 13.125C10.6066 13.125 13.125 10.6066 13.125 7.5C13.125 7.44694 13.1242 7.39405 13.1228 7.34135L14.7789 5.68521C14.9233 6.26632 15 6.87421 15 7.5C15 11.6422 11.6422 15 7.5 15C3.35786 15 0 11.6422 0 7.5C0 3.35786 3.35786 0 7.5 0C8.12579 0 8.73368 0.0766431 9.31479 0.221054L7.65865 1.87719Z" fill="#0A0D1A" fill-opacity="0.7"/>
<path d="M3.75 7.50002C3.75 5.75267 4.9451 4.28445 6.5625 3.86816V5.87586C6.00206 6.20005 5.625 6.80601 5.625 7.50002C5.625 8.53555 6.46447 9.37502 7.5 9.37502C8.19401 9.37502 8.79997 8.99796 9.12416 8.43752H11.1319C10.7155 10.0549 9.24735 11.2501 7.5 11.2501C5.42893 11.2501 3.75 9.57109 3.75 7.50002Z" fill="#0A0D1A" fill-opacity="0.7"/>
<path d="M13.1258 1.875L12.1883 0L9.37581 2.8125V4.29918L7.30664 6.36833L8.63247 7.69417L10.7016 5.625H12.1883L15.0008 2.8125L13.1258 1.875Z" fill="#0A0D1A" fill-opacity="0.7"/>
</g>
<defs>
<clipPath id="clip0_2768_1058">
<rect width="15" height="15" fill="white"/>
</clipPath>
</defs>
</svg>
