<svg width="20" height="20" viewBox="0 0 20 20" fill="none" xmlns="http://www.w3.org/2000/svg">
<path fill-rule="evenodd" clip-rule="evenodd" d="M10.0003 3.33329C6.31843 3.33329 3.33366 6.31806 3.33366 9.99996C3.33366 13.6819 6.31843 16.6666 10.0003 16.6666C13.6822 16.6666 16.667 13.6819 16.667 9.99996C16.667 6.31806 13.6822 3.33329 10.0003 3.33329ZM1.66699 9.99996C1.66699 5.39758 5.39795 1.66663 10.0003 1.66663C14.6027 1.66663 18.3337 5.39758 18.3337 9.99996C18.3337 14.6023 14.6027 18.3333 10.0003 18.3333C5.39795 18.3333 1.66699 14.6023 1.66699 9.99996ZM9.85732 5.63109C10.3176 5.63109 10.6907 6.00418 10.6907 6.46443V10.6037L13.6297 11.721C14.06 11.8845 14.2762 12.3659 14.1126 12.796C13.9491 13.2263 13.4677 13.4425 13.0376 13.2789L9.56124 11.9575C9.23782 11.8345 9.02399 11.5245 9.02399 11.1785V6.46443C9.02399 6.00418 9.39708 5.63109 9.85732 5.63109Z" fill="#0F1729" fill-opacity="0.5"/>
</svg>
