<svg width="20" height="20" viewBox="0 0 20 20" fill="none" xmlns="http://www.w3.org/2000/svg">
<path fill-rule="evenodd" clip-rule="evenodd" d="M4.00568 9.77784C4.00568 9.14273 4.11116 8.53384 4.29943 7.96273L1.00409 5.44629C0.361847 6.75029 0 8.21962 0 9.77784C0 11.3347 0.361401 12.8032 1.00276 14.1063L4.29632 11.585C4.10983 11.0165 4.00568 10.4098 4.00568 9.77784Z" fill="#FBBC05"/>
<path fill-rule="evenodd" clip-rule="evenodd" d="M9.79173 4C11.1715 4 12.4177 4.48889 13.3968 5.28889L16.2453 2.44444C14.5095 0.933333 12.2842 0 9.79173 0C5.92224 0 2.59663 2.21289 1.00415 5.44622L4.29949 7.96267C5.05879 5.65778 7.22319 4 9.79173 4Z" fill="#EB4335"/>
<path fill-rule="evenodd" clip-rule="evenodd" d="M9.79173 15.5554C7.22319 15.5554 5.05879 13.8977 4.29949 11.5928L1.00415 14.1088C2.59663 17.3426 5.92224 19.5554 9.79173 19.5554C12.18 19.5554 14.4601 18.7074 16.1714 17.1186L13.0434 14.7003C12.1609 15.2563 11.0495 15.5554 9.79173 15.5554Z" fill="#34A853"/>
<path fill-rule="evenodd" clip-rule="evenodd" d="M19.1383 9.77778C19.1383 9.2 19.0493 8.57778 18.9158 8H9.79175V11.7778H15.0436C14.781 13.0658 14.0663 14.056 13.0435 14.7004L16.1715 17.1187C17.9691 15.4502 19.1383 12.9649 19.1383 9.77778Z" fill="#4285F4"/>
</svg>
