<svg width="20" height="20" viewBox="0 0 20 20" fill="none" xmlns="http://www.w3.org/2000/svg">
<g clip-path="url(#clip0_2015_1068)">
<path d="M14.6663 14.6666H13.333V13.3333H14.6663V14.6666Z" fill="#3A3FBB"/>
<path d="M10.667 14.6666H12.0003V13.3333H10.667V14.6666Z" fill="#3A3FBB"/>
<path d="M17.3333 14.6666H16V13.3333H17.3333V14.6666Z" fill="#3A3FBB"/>
<path fill-rule="evenodd" clip-rule="evenodd" d="M4 8V4.66667C4 2.08933 6.08933 0 8.66667 0C11.244 0 13.3333 2.08933 13.3333 4.66667V8H15.3333C16.4379 8 17.3333 8.89543 17.3333 10V10.7333C18.8548 11.0422 20 12.3874 20 14C20 15.6127 18.8548 16.9579 17.3333 17.2667V18C17.3333 19.1045 16.4379 20 15.3333 20H2C0.895431 20 0 19.1045 0 18V10C0 8.89543 0.895431 8 2 8H4ZM5.33333 4.66667C5.33333 2.82572 6.82572 1.33333 8.66667 1.33333C10.5076 1.33333 12 2.82572 12 4.66667V8H5.33333V4.66667ZM11.3333 12C10.2288 12 9.33333 12.8954 9.33333 14C9.33333 15.1045 10.2288 16 11.3333 16H16.6667C17.7712 16 18.6667 15.1045 18.6667 14C18.6667 12.8954 17.7712 12 16.6667 12H11.3333Z" fill="#3A3FBB"/>
</g>
<defs>
<clipPath id="clip0_2015_1068">
<rect width="20" height="20" fill="white"/>
</clipPath>
</defs>
</svg>
