<svg width="8" height="10" viewBox="0 0 8 10" fill="none" xmlns="http://www.w3.org/2000/svg">
<path d="M2.5 7.5H4.5M2.5 5.5H4.5M2.5 3.5H3M6.5 8V9.5M6.5 6.5H6.505M4.5 0.5H2.1C1.53995 0.5 1.25992 0.5 1.04601 0.608995C0.857845 0.704865 0.704865 0.857845 0.608995 1.04601C0.5 1.25992 0.5 1.53995 0.5 2.1V7.9C0.5 8.46005 0.5 8.7401 0.608995 8.954C0.704865 9.14215 0.857845 9.29515 1.04601 9.391C1.25992 9.5 1.53995 9.5 2.1 9.5H4.5M4.5 0.5L7.5 3.5M4.5 0.5V2.7C4.5 2.98003 4.5 3.12004 4.5545 3.227C4.60245 3.32108 4.6789 3.39757 4.773 3.44551C4.87995 3.5 5.01995 3.5 5.3 3.5H7.5M7.5 3.5V4.75" stroke="#667CFE" stroke-linecap="round" stroke-linejoin="round"/>
</svg>
