<svg width="12" height="12" viewBox="0 0 12 12" fill="none" xmlns="http://www.w3.org/2000/svg">
<path d="M8 3.5V3.1C8 2.53995 8 2.25992 7.891 2.04601C7.79515 1.85785 7.64215 1.70486 7.454 1.60899C7.2401 1.5 6.96005 1.5 6.4 1.5H5.6C5.03995 1.5 4.75992 1.5 4.54601 1.60899C4.35785 1.70486 4.20486 1.85785 4.10899 2.04601C4 2.25992 4 2.53995 4 3.1V3.5M1.5136 5.01315C1.69388 5.18595 3.64286 7 6 7C8.35715 7 10.3061 5.18595 10.4864 5.01315M1.5136 5.01315C1.5 5.2465 1.5 5.53325 1.5 5.9V8.1C1.5 8.9401 1.5 9.3601 1.66349 9.681C1.8073 9.96325 2.03677 10.1927 2.31902 10.3365C2.63988 10.5 3.05992 10.5 3.9 10.5H8.1C8.9401 10.5 9.3601 10.5 9.681 10.3365C9.96325 10.1927 10.1927 9.96325 10.3365 9.681C10.5 9.3601 10.5 8.9401 10.5 8.1V5.9C10.5 5.53325 10.5 5.2465 10.4864 5.01315M1.5136 5.01315C1.53116 4.71205 1.57138 4.4998 1.66349 4.31902C1.8073 4.03677 2.03677 3.8073 2.31902 3.66349C2.63988 3.5 3.05992 3.5 3.9 3.5H8.1C8.9401 3.5 9.3601 3.5 9.681 3.66349C9.96325 3.8073 10.1927 4.03677 10.3365 4.31902C10.4286 4.4998 10.4688 4.71205 10.4864 5.01315" stroke="#667CFE" stroke-linecap="round" stroke-linejoin="round"/>
</svg>
