<svg width="12" height="12" viewBox="0 0 12 12" fill="none" xmlns="http://www.w3.org/2000/svg">
<path fill-rule="evenodd" clip-rule="evenodd" d="M4.8 6.00039C4.8 5.33739 5.337 4.80039 6 4.80039C6.663 4.80039 7.2 5.33739 7.2 6.00039C7.2 6.66339 6.663 7.20039 6 7.20039C5.337 7.20039 4.8 6.66339 4.8 6.00039ZM10.2 8.40039H1.8C1.4688 8.40039 1.2 8.13159 1.2 7.80039V4.20039C1.2 3.86919 1.4688 3.60039 1.8 3.60039H10.2C10.5312 3.60039 10.8 3.86919 10.8 4.20039V7.80039C10.8 8.13159 10.5312 8.40039 10.2 8.40039ZM0 3.60039V8.40039C0 9.06339 0.537 9.60039 1.2 9.60039H10.8C11.463 9.60039 12 9.06339 12 8.40039V3.60039C12 2.93739 11.463 2.40039 10.8 2.40039H1.2C0.537 2.40039 0 2.93739 0 3.60039Z" fill="#667CFE"/>
</svg>
