<svg width="31" height="31" viewBox="0 0 31 31" fill="none" xmlns="http://www.w3.org/2000/svg">
<path d="M23.1719 23.1719H19.8381V17.95C19.8381 16.705 19.8156 15.1019 18.1038 15.1019C16.3675 15.1019 16.1013 16.4594 16.1013 17.8582V23.1719H12.7675V12.4338H15.9681V13.9019H16.0131C16.6656 12.7882 17.8806 12.1207 19.1706 12.1675C22.5494 12.1675 23.1737 14.3894 23.1737 17.2825L23.1719 23.17V23.1719ZM9.00625 10.9657C8.49414 10.9632 8.00368 10.7588 7.64138 10.3968C7.27908 10.0349 7.07421 9.54464 7.07125 9.03253C7.07125 7.97128 7.945 7.09753 9.00625 7.09753C10.0675 7.09753 10.9394 7.97128 10.9413 9.03253C10.9413 10.0938 10.0675 10.9657 9.00625 10.9657ZM10.6731 23.1719H7.33563V12.4338H10.6731V23.1719ZM24.8312 4.00003H5.65937C5.22466 3.9975 4.80651 4.16664 4.49579 4.47068C4.18508 4.77473 4.00691 5.18911 4 5.62378V24.8763C4.00691 25.3109 4.18508 25.7253 4.49579 26.0294C4.80651 26.3334 5.22466 26.5026 5.65937 26.5H24.8331C25.2688 26.5036 25.6884 26.335 26.0005 26.0309C26.3126 25.7269 26.4921 25.3119 26.5 24.8763V5.6219C26.4921 5.18658 26.3125 4.77202 26.0002 4.46857C25.688 4.16512 25.2685 3.99738 24.8331 4.0019L24.8312 4.00003Z" fill="#0A66C2"/>
</svg>
