<svg width="31" height="31" viewBox="0 0 31 31" fill="none" xmlns="http://www.w3.org/2000/svg">
<path d="M4 18V13C4 8.28595 4 5.92894 5.46446 4.46446C6.92894 3 9.28595 3 14 3H16.5C21.214 3 23.5711 3 25.0355 4.46446C25.852 5.28095 26.2133 6.37486 26.3731 8M26.5 13V18C26.5 22.714 26.5 25.0711 25.0355 26.5355C23.5711 28 21.214 28 16.5 28H14C9.28595 28 6.92894 28 5.46446 26.5355C4.64799 25.719 4.28671 24.6251 4.12686 23" stroke="#6864F7" stroke-width="2" stroke-linecap="round"/>
<path d="M10.1665 15.5H11.4373M20.3332 15.5H15.2498" stroke="#6864F7" stroke-width="2" stroke-linecap="round"/>
<path d="M20.3332 10.3333H19.0623M15.2498 10.3333H10.1665" stroke="#6864F7" stroke-width="2" stroke-linecap="round"/>
<path d="M10.1665 20.6667H16.5207" stroke="#6864F7" stroke-width="2" stroke-linecap="round"/>
</svg>
