<svg width="20" height="20" viewBox="0 0 20 20" fill="none" xmlns="http://www.w3.org/2000/svg">
<path d="M4 11.4V8.6C4 5.96013 4 4.6402 4.84613 3.8201C5.69227 3 7.0541 3 9.77778 3H11.2222C13.9459 3 15.3078 3 16.1538 3.8201C16.6256 4.27733 16.8343 4.88992 16.9267 5.8M17 8.6V11.4C17 14.0398 17 15.3598 16.1538 16.1799C15.3078 17 13.9459 17 11.2222 17H9.77778C7.0541 17 5.69227 17 4.84613 16.1799C4.37439 15.7226 4.16566 15.1101 4.0733 14.2" stroke="#3A3FBB" stroke-linecap="round"/>
<path d="M6.66602 10H7.49935M13.3327 10H9.99935" stroke="#3A3FBB" stroke-linecap="round"/>
<path d="M13.3327 6.66699H12.4993M9.99935 6.66699H6.66602" stroke="#3A3FBB" stroke-linecap="round"/>
<path d="M6.66602 13.333H10.8327" stroke="#3A3FBB" stroke-linecap="round"/>
</svg>
