<svg width="20" height="20" viewBox="0 0 20 20" fill="none" xmlns="http://www.w3.org/2000/svg">
<path d="M10 4.375C10 6.10089 8.60089 7.5 6.875 7.5C5.14911 7.5 3.75 6.10089 3.75 4.375C3.75 2.64911 5.14911 1.25 6.875 1.25C8.60089 1.25 10 2.64911 10 4.375Z" fill="#3A3FBB"/>
<path d="M3.75 10C1.67894 10 0 11.6789 0 13.75V18.75H10V10H3.75Z" fill="#3A3FBB"/>
<path d="M16.25 10H12.5V18.75H20V13.75C20 11.6789 18.3211 10 16.25 10Z" fill="#3A3FBB"/>
<path d="M15 7.5C16.3807 7.5 17.5 6.38071 17.5 5C17.5 3.61929 16.3807 2.5 15 2.5C13.6193 2.5 12.5 3.61929 12.5 5C12.5 6.38071 13.6193 7.5 15 7.5Z" fill="#3A3FBB"/>
</svg>
