<svg width="25" height="22" viewBox="0 0 25 22" fill="none" xmlns="http://www.w3.org/2000/svg">
<path d="M13.5 21V18.5C13.5 15.0483 10.7017 12.25 7.25 12.25C3.79822 12.25 1 15.0483 1 18.5V21H13.5ZM13.5 21H23.5V19.75C23.5 16.0681 20.7017 13.5 17.25 13.5C15.4834 13.5 13.8879 14.2819 12.7511 15.5389M11 4.75C11 6.82106 9.32106 8.5 7.25 8.5C5.17894 8.5 3.5 6.82106 3.5 4.75C3.5 2.67894 5.17894 1 7.25 1C9.32106 1 11 2.67894 11 4.75ZM19.75 7.25C19.75 8.63075 18.6307 9.75 17.25 9.75C15.8693 9.75 14.75 8.63075 14.75 7.25C14.75 5.86929 15.8693 4.75 17.25 4.75C18.6307 4.75 19.75 5.86929 19.75 7.25Z" stroke="#F28144" stroke-width="2" stroke-linecap="round" stroke-linejoin="round"/>
</svg>
