<svg width="30" height="30" viewBox="0 0 30 30" fill="none" xmlns="http://www.w3.org/2000/svg">
<path d="M21.25 23.75H26.25M23.75 21.25V26.25M16.25 3.75H10.25C8.84987 3.75 8.1498 3.75 7.61503 4.02249C7.14461 4.26216 6.76216 4.64461 6.52249 5.11503C6.25 5.6498 6.25 6.34987 6.25 7.75V22.25C6.25 23.6501 6.25 24.3503 6.52249 24.885C6.76216 25.3554 7.14461 25.7379 7.61503 25.9775C8.1498 26.25 8.84987 26.25 10.25 26.25H15M16.25 3.75L23.75 11.25M16.25 3.75V9.25C16.25 9.95006 16.25 10.3001 16.3863 10.5675C16.5061 10.8027 16.6972 10.9939 16.9325 11.1138C17.1999 11.25 17.5499 11.25 18.25 11.25H23.75M23.75 11.25V15M11.25 21.25H15M11.25 16.25H18.75M11.25 11.25H12.5" stroke="#F5F7FF" stroke-width="2" stroke-linecap="round" stroke-linejoin="round"/>
</svg>
