<svg width="20" height="20" viewBox="0 0 20 20" fill="none" xmlns="http://www.w3.org/2000/svg">
<g clip-path="url(#clip0_94_682)">
<path d="M12.7497 18.772C13.391 18.772 13.391 19.7474 12.7497 19.7474H0.998305C0.729012 19.7474 0.510742 19.5289 0.510742 19.2596V4.57389C0.510742 4.43925 0.56531 4.31712 0.65342 4.22901L4.48731 0.395356C4.58251 0.300158 4.70723 0.252441 4.83196 0.252441H15.8609C16.1302 0.252441 16.3487 0.470947 16.3487 0.740241V9.27637C16.3487 9.91795 15.3734 9.91795 15.3734 9.27637V1.2278H5.03393L1.4861 4.77586V18.772H12.7497ZM4.45329 14.4733C3.81171 14.4733 3.81171 13.4979 4.45329 13.4979H11.6975C12.3391 13.4979 12.3391 14.4733 11.6975 14.4733H4.45329ZM4.45329 7.98471C3.81171 7.98471 3.81171 7.00934 4.45329 7.00934H11.6975C12.3391 7.00934 12.3391 7.98471 11.6975 7.98471H4.45329ZM4.45329 10.1476C3.81171 10.1476 3.81171 9.1722 4.45329 9.1722H11.6975C12.3391 9.1722 12.3391 10.1476 11.6975 10.1476H4.45329ZM4.45329 12.3104C3.81171 12.3104 3.81171 11.335 4.45329 11.335H11.6975C12.3391 11.335 12.3391 12.3104 11.6975 12.3104H4.45329ZM4.45329 5.82186C3.81171 5.82186 3.81171 4.84649 4.45329 4.84649H11.6975C12.3391 4.84649 12.3391 5.82186 11.6975 5.82186H4.45329ZM16.1834 11.4499C17.3607 11.4499 18.3151 12.4042 18.3151 13.5815C18.3151 14.0091 18.1891 14.4071 17.9725 14.7407C18.86 15.3296 19.4246 16.3016 19.4874 17.3675C19.525 18.0067 18.5532 18.0636 18.5158 17.4246C18.466 16.5815 17.9817 15.8306 17.2372 15.4347C16.9263 15.6119 16.5668 15.713 16.1834 15.713C15.7686 15.713 15.3814 15.5946 15.054 15.3896C14.2641 15.7704 13.7406 16.548 13.6889 17.4246C13.6513 18.0636 12.6797 18.0067 12.7173 17.3675C12.7832 16.253 13.3964 15.2443 14.3491 14.6679C14.1604 14.3497 14.052 13.9784 14.052 13.5815C14.052 12.4044 15.0063 11.4499 16.1834 11.4499ZM16.1834 12.4252C15.5449 12.4252 15.0273 12.943 15.0273 13.5815C15.0273 14.22 15.5449 14.7376 16.1834 14.7376C16.8219 14.7376 17.3397 14.22 17.3397 13.5815C17.3397 12.943 16.8221 12.4252 16.1834 12.4252Z" fill="#6275FC"/>
</g>
<defs>
<clipPath id="clip0_94_682">
<rect width="20" height="20" fill="white"/>
</clipPath>
</defs>
</svg>
