<svg width="20" height="20" viewBox="0 0 20 20" fill="none" xmlns="http://www.w3.org/2000/svg">
<path d="M18.75 1.87134H1.25C0.563125 1.87134 0 2.43384 0 3.12134V13.7501C0 14.437 0.5625 14.9995 1.25 14.9995H9.375V16.8782H6.25C5.905 16.8782 5.625 17.1582 5.625 17.5032C5.625 17.8482 5.905 18.1282 6.25 18.1282H13.75C14.095 18.1282 14.375 17.8482 14.375 17.5032C14.375 17.1582 14.095 16.8782 13.75 16.8782H10.625V14.9995H18.75C19.4369 14.9995 20 14.437 20 13.7501V3.12134C20 2.43384 19.4369 1.87134 18.75 1.87134ZM18.75 13.7501H1.25V3.12134H18.75V13.7501Z" fill="black"/>
</svg>
