<svg width="20" height="20" viewBox="0 0 20 20" fill="none" xmlns="http://www.w3.org/2000/svg">
<path d="M11.875 9.99984C11.875 9.19442 12.5279 8.5415 13.3333 8.5415C14.1387 8.5415 14.7917 9.19442 14.7917 9.99984C14.7917 10.8053 14.1387 11.4582 13.3333 11.4582C12.5279 11.4582 11.875 10.8053 11.875 9.99984Z" fill="#6864F7" fill-opacity="0.7"/>
<path d="M6.66732 11.4582C7.47273 11.4582 8.12565 10.8053 8.12565 9.99984C8.12565 9.19442 7.47273 8.5415 6.66732 8.5415C5.8619 8.5415 5.20898 9.19442 5.20898 9.99984C5.20898 10.8053 5.8619 11.4582 6.66732 11.4582Z" fill="#6864F7" fill-opacity="0.7"/>
<path fill-rule="evenodd" clip-rule="evenodd" d="M2.88641 2.8869C1.66602 4.10728 1.66602 6.07146 1.66602 9.99984C1.66602 13.9282 1.66602 15.8924 2.88641 17.1128C4.10679 18.3332 6.07097 18.3332 9.99935 18.3332C13.9277 18.3332 15.8919 18.3332 17.1123 17.1128C18.3327 15.8924 18.3327 13.9282 18.3327 9.99984C18.3327 6.07146 18.3327 4.10728 17.1123 2.8869C15.8919 1.6665 13.9277 1.6665 9.99935 1.6665C6.07097 1.6665 4.10679 1.6665 2.88641 2.8869ZM11.0501 11.4582C10.7806 11.0373 10.6243 10.5368 10.6243 9.99984C10.6243 8.50409 11.8369 7.2915 13.3327 7.2915C14.8284 7.2915 16.041 8.50409 16.041 9.99984C16.041 11.4956 14.8284 12.7082 13.3327 12.7082H6.66602C5.17024 12.7082 3.95768 11.4956 3.95768 9.99984C3.95768 8.50409 5.17024 7.2915 6.66602 7.2915C8.16179 7.2915 9.37435 8.50409 9.37435 9.99984C9.37435 10.5368 9.2181 11.0373 8.9486 11.4582H11.0501Z" fill="#6864F7" fill-opacity="0.7"/>
</svg>
