<svg width="20" height="20" viewBox="0 0 20 20" fill="none" xmlns="http://www.w3.org/2000/svg">
<path d="M10 12.5C9.50555 12.5 9.0222 12.6466 8.61108 12.9213C8.19995 13.196 7.87952 13.5865 7.6903 14.0433C7.50108 14.5001 7.45157 15.0028 7.54804 15.4877C7.6445 15.9727 7.8826 16.4181 8.23223 16.7678C8.58187 17.1174 9.02732 17.3555 9.51228 17.452C9.99723 17.5484 10.4999 17.4989 10.9567 17.3097C11.4135 17.1205 11.804 16.8 12.0787 16.3889C12.3534 15.9778 12.5 15.4945 12.5 15C12.4996 14.3371 12.236 13.7015 11.7673 13.2327C11.2985 12.764 10.6629 12.5004 10 12.5Z" fill="#6864F7" fill-opacity="0.7"/>
<path d="M4.70936 9.71456C4.4756 9.94961 4.3448 10.2679 4.34571 10.5994C4.34662 10.9309 4.47918 11.2484 4.71422 11.4822C4.94926 11.7159 5.26754 11.8467 5.59903 11.8458C5.93051 11.8449 6.24806 11.7123 6.48181 11.4773C7.4239 10.5614 8.68599 10.0491 9.99988 10.0491C11.3138 10.0491 12.5759 10.5614 13.5179 11.4773C13.6337 11.5946 13.7718 11.6876 13.9239 11.7509C14.0761 11.8142 14.2394 11.8466 14.4042 11.846C14.6511 11.846 14.8924 11.7728 15.0978 11.6358C15.3031 11.4987 15.4633 11.3039 15.5581 11.076C15.6529 10.848 15.678 10.5971 15.6304 10.3548C15.5828 10.1126 15.4645 9.88989 15.2904 9.71479C12.4535 6.85813 7.54627 6.85813 4.70936 9.71456Z" fill="#6864F7" fill-opacity="0.7"/>
<path d="M18.8055 6.20361C17.6582 5.03112 16.2882 4.09956 14.776 3.46358C13.2638 2.8276 11.6399 2.5 9.99939 2.5C8.35891 2.5 6.73494 2.8276 5.22276 3.46358C3.71057 4.09956 2.34061 5.03112 1.19325 6.20361C0.960146 6.4393 0.83022 6.75793 0.83205 7.08942C0.833881 7.4209 0.967318 7.73808 1.20301 7.97118C1.4387 8.20428 1.75733 8.33421 2.08881 8.33238C2.4203 8.33055 2.73748 8.19711 2.97058 7.96142C6.745 4.14307 13.2538 4.14307 17.0282 7.96142C17.2613 8.19711 17.5785 8.33055 17.91 8.33238C18.2415 8.33421 18.5601 8.20428 18.7958 7.97118C19.0315 7.73808 19.1649 7.4209 19.1667 7.08942C19.1686 6.75793 19.0386 6.4393 18.8055 6.20361Z" fill="#6864F7" fill-opacity="0.7"/>
</svg>
